<?xml version="1.0" encoding="UTF-8" standalone="no"?>
<svg version="1.1" viewBox="0 0 95 102" xmlns="http://www.w3.org/2000/svg">
  <g id="g15" transform="matrix(1.3333333,0,0,-1.3333333,-173.6996,748.19478)">
    <g id="g155" transform="translate(179.9327,501.435)">
      <path
        d="M 0,0 H -22.726 V 43.11 H 0 c 0.486,0 0.966,-0.022 1.444,-0.054 l 0.002,0.003 c -1.56,5.723 -3.739,10.328 -6.345,13.216 -3.659,4.054 -10.316,3.33 -12.164,3.055 -18.444,-2.737 -32.595,-18.638 -32.595,-37.843 0,-18.337 12.9,-33.661 30.119,-37.392 2.624,-0.569 11.008,-1.783 15.259,3.435 2.364,2.902 4.332,7.237 5.764,12.522 L 1.48,0.056 C 0.99,0.023 0.498,0 0,0"
        style="fill:#004eff;fill-opacity:1;fill-rule:nonzero;stroke:none"
        id="path157"/>
    </g>
    <g id="g163" transform="translate(181.3797,544.4911)">
      <path
        d="m 0,0 c 1.674,-6.144 2.635,-13.577 2.635,-21.569 0,-7.922 -0.94,-15.312 -2.597,-21.43 11.211,0.763 20.07,10.093 20.07,21.498 C 20.108,-10.083 11.229,-0.745 0,0"
        style="fill:#00e900;fill-opacity:1;fill-rule:nonzero;stroke:none"
        id="path165"/>
    </g>
  </g>
</svg>
