<?xml version="1.0" encoding="UTF-8"?>
<svg version="1.1" viewBox="0 0 363 83" xml:space="preserve" xmlns="http://www.w3.org/2000/svg">
  <g transform="matrix(1.3333 0 0 -1.3333 -229.12 392.55)">
    <g transform="translate(246.69,250.59)">
      <path d="m0 0h-6.428v15.829h14.269v-5.555h-7.841zm14.38 21.236h-20.809v5.555h20.809z" style="fill:#fff"/>
    </g>
    <g transform="translate(276.25,250.13)">
      <path
        d="m0 0c-3.691 0-6.583 1.016-8.676 3.047-2.106 2.019-3.159 4.985-3.159 8.899v15.347h6.466v-15.179c0-2.218 0.483-3.846 1.449-4.886 0.991-1.066 2.322-1.598 3.994-1.598 1.673 0 3.004 0.508 3.995 1.523 0.966 1.04 1.449 2.626 1.449 4.756v15.384h6.466v-15.142c0-2.019-0.279-3.784-0.837-5.295-0.545-1.486-1.331-2.744-2.359-3.772-1.04-1.016-2.31-1.79-3.809-2.322-1.499-0.508-3.158-0.762-4.979-0.762"
        style="fill:#fff"/>
    </g>
    <g transform="translate(298.01,250.59)">
      <path d="m0 0h-6.428v15.829h14.268v-5.555h-7.84zm14.38 21.236h-20.809v5.555h20.809z" style="fill:#fff"/>
    </g>
    <g transform="translate(327.57,250.13)">
      <path
        d="m0 0c-3.69 0-6.583 1.016-8.676 3.047-2.105 2.019-3.158 4.985-3.158 8.899v15.347h6.466v-15.179c0-2.218 0.482-3.846 1.448-4.886 0.991-1.066 2.322-1.598 3.994-1.598s3.004 0.508 3.996 1.523c0.965 1.04 1.45 2.626 1.45 4.756v15.384h6.464v-15.142c0-2.019-0.279-3.784-0.836-5.295-0.545-1.486-1.332-2.744-2.359-3.772-1.041-1.016-2.311-1.79-3.809-2.322-1.5-0.508-3.158-0.762-4.98-0.762"
        style="fill:#fff"/>
    </g>
    <g transform="translate(350.99,271.79)">
      <path d="m0 0h-8.1v5.629h22.685v-5.629h-8.119v-21.236h-6.466z" style="fill:#fff"/></g>
    <g transform="translate(380.76,250.13)">
      <path
        d="m0 0c-3.691 0-6.583 1.016-8.677 3.047-2.105 2.019-3.158 4.985-3.158 8.899v15.347h6.466v-15.179c0-2.218 0.482-3.846 1.449-4.886 0.99-1.066 2.322-1.598 3.994-1.598s3.004 0.508 3.995 1.523c0.966 1.04 1.45 2.626 1.45 4.756v15.384h6.464v-15.142c0-2.019-0.278-3.784-0.835-5.295-0.545-1.486-1.332-2.744-2.36-3.772-1.04-1.016-2.31-1.79-3.808-2.322-1.5-0.508-3.159-0.762-4.98-0.762"
        style="fill:#fff"/>
    </g>
    <g transform="translate(419.79,250.55)">
      <path
        d="m0 0h-7.413l-9.476 13.916h5.277c2.663 0 4.062 1.22 4.199 3.66 0 2.477-1.437 3.735-4.311 3.772h-5.517v-21.348h-6.466v26.865h12.485c3.493 0 6.181-0.941 8.064-2.824 1.523-1.548 2.285-3.573 2.285-6.075 0-4.385-1.889-7.178-5.667-8.379z"
        style="fill:#fff"/>
    </g>
    <g transform="translate(428.95,256)">
      <path d="m0 0h14.882v-5.443h-20.697v16.127h12.931v-5.445h-7.116zm-5.815 21.385h20.697v-5.443h-20.697z"
            style="fill:#fff"/>
    </g>
    <g transform="translate(194.86,256.43)">
      <path
        d="m0 0-14.494 14.269 14.626 14.635h29.531c-5.583 5.612-13.311 9.087-21.852 9.087-17.025 0-30.826-13.802-30.826-30.827 0-8.253 3.25-15.743 8.533-21.276 0.232 7.437 6.033 13.47 13.374 14.064 0.366 0.03 0.735 0.046 1.108 0.048"
        style="fill:#00e900"/>
    </g>
    <g transform="translate(224.97,284.87)">
      <path
        d="m0 0c-0.233-7.461-6.07-13.509-13.444-14.07-0.343-0.026-0.689-0.041-1.038-0.042l14.494-14.27-14.626-14.635h-29.531c5.582-5.611 13.311-9.086 21.852-9.086 17.024 0 30.826 13.801 30.826 30.826 0 8.254-3.251 15.744-8.533 21.277"
        style="fill:#fff"/>
    </g>
    <g transform="translate(205.68,259.76)">
      <path d="m0 0h4.429v3.535h-4.429v3.574h4.429v3.892h-14.879v-14.325h10.45z" style="fill:#fff"/>
    </g>
  </g>
</svg>
