<?xml version="1.0" encoding="UTF-8"?>
<svg version="1.1" viewBox="0 0 363 83" xml:space="preserve" xmlns="http://www.w3.org/2000/svg">
  <g transform="matrix(1.3333 0 0 -1.3333 -250.8 958.3)">
    <g transform="translate(262.95,674.9)">
      <path d="m0 0h-6.428v15.829h14.269v-5.554h-7.841zm14.38 21.236h-20.809v5.555h20.809z" style="fill:#004eff"/>
    </g>
    <g transform="translate(292.51,674.44)">
      <path
        d="m0 0c-3.691 0-6.584 1.016-8.676 3.047-2.106 2.019-3.159 4.985-3.159 8.899v15.347h6.466v-15.179c0-2.218 0.483-3.846 1.449-4.887 0.991-1.065 2.322-1.597 3.994-1.597 1.673 0 3.004 0.508 3.995 1.523 0.966 1.04 1.449 2.626 1.449 4.756v15.384h6.465v-15.142c0-2.019-0.278-3.784-0.836-5.295-0.544-1.486-1.332-2.744-2.359-3.772-1.041-1.016-2.31-1.79-3.809-2.322-1.499-0.508-3.158-0.762-4.979-0.762"
        style="fill:#004eff"/>
    </g>
    <g transform="translate(314.26,674.9)">
      <path d="m0 0h-6.428v15.829h14.269v-5.554h-7.841zm14.381 21.236h-20.809v5.555h20.809z" style="fill:#004eff"/>
    </g>
    <g transform="translate(343.82,674.44)">
      <path
        d="m0 0c-3.69 0-6.583 1.016-8.676 3.047-2.105 2.019-3.158 4.985-3.158 8.899v15.347h6.466v-15.179c0-2.218 0.482-3.846 1.448-4.887 0.991-1.065 2.322-1.597 3.994-1.597s3.004 0.508 3.996 1.523c0.965 1.04 1.45 2.626 1.45 4.756v15.384h6.464v-15.142c0-2.019-0.279-3.784-0.836-5.295-0.545-1.486-1.332-2.744-2.359-3.772-1.041-1.016-2.311-1.79-3.809-2.322-1.5-0.508-3.158-0.762-4.98-0.762"
        style="fill:#004eff"/>
    </g>
    <g transform="translate(367.25,696.1)">
      <path d="m0 0h-8.101v5.629h22.686v-5.629h-8.119v-21.236h-6.466z" style="fill:#004eff"/></g>
    <g transform="translate(397.01,674.44)">
      <path
        d="m0 0c-3.691 0-6.583 1.016-8.677 3.047-2.105 2.019-3.158 4.985-3.158 8.899v15.347h6.466v-15.179c0-2.218 0.482-3.846 1.449-4.887 0.99-1.065 2.322-1.597 3.994-1.597s3.004 0.508 3.995 1.523c0.966 1.04 1.45 2.626 1.45 4.756v15.384h6.464v-15.142c0-2.019-0.278-3.784-0.836-5.295-0.544-1.486-1.331-2.744-2.359-3.772-1.04-1.016-2.31-1.79-3.809-2.322-1.499-0.508-3.158-0.762-4.979-0.762"
        style="fill:#004eff"/>
    </g>
    <g transform="translate(436.05,674.87)">
      <path
        d="m0 0h-7.413l-9.476 13.916h5.277c2.663 0 4.062 1.22 4.199 3.66 0 2.477-1.437 3.735-4.311 3.772h-5.517v-21.348h-6.466v26.865h12.485c3.494 0 6.181-0.941 8.064-2.824 1.523-1.548 2.285-3.573 2.285-6.075 0-4.385-1.889-7.178-5.667-8.379z"
        style="fill:#004eff"/>
    </g>
    <g transform="translate(445.21,680.31)">
      <path d="m0 0h14.882v-5.443h-20.697v16.127h12.931v-5.445h-7.116zm-5.815 21.385h20.697v-5.443h-20.697z"
            style="fill:#004eff"/>
    </g>
    <g transform="translate(211.12,680.75)">
      <path
        d="m0 0-14.494 14.269 14.626 14.635h29.531c-5.582 5.612-13.311 9.086-21.852 9.086-17.025 0-30.826-13.801-30.826-30.826 0-8.253 3.25-15.743 8.533-21.276 0.224 7.156 5.602 13.011 12.547 13.974 0.633 0.087 1.279 0.134 1.935 0.138"
        style="fill:#00e900"/>
    </g>
    <g transform="translate(241.22,709.19)">
      <path
        d="m0 0c-0.221-7.057-5.453-12.848-12.258-13.931-0.725-0.115-1.468-0.177-2.224-0.181l14.494-14.27-14.626-14.635h-29.531c5.582-5.611 13.311-9.086 21.852-9.086 17.024 0 30.826 13.801 30.826 30.826 0 8.254-3.251 15.744-8.533 21.277"
        style="fill:#004eff"/>
    </g>
    <g transform="translate(228.41,683.58)">
      <path d="m0 0h-6.474" style="fill:#fff"/>
    </g>
    <g transform="translate(221.94,684.07)">
      <path d="m0 0h4.43v3.535h-4.43v3.574h4.43v3.892h-14.88v-14.325h10.45z" style="fill:#004eff"/>
    </g>
  </g>
</svg>
