<?xml version="1.0" encoding="UTF-8" standalone="no"?>
<svg version="1.1" viewBox="0 0 83 83" xmlns="http://www.w3.org/2000/svg">
  <g transform="matrix(1.3333,0,0,-1.3333,-250.3004,958.79604)" id="g25">
    <g transform="translate(211.12,680.75)" id="g11">
      <path
        d="M 0,0 -14.494,14.269 0.132,28.904 h 29.531 c -5.582,5.612 -13.311,9.086 -21.852,9.086 -17.025,0 -30.826,-13.801 -30.826,-30.826 0,-8.253 3.25,-15.743 8.533,-21.276 0.224,7.156 5.602,13.011 12.547,13.974 C -1.302,-0.051 -0.656,-0.004 0,0"
        style="fill:#00e900"
        id="path9"/>
    </g>
    <g transform="translate(241.22,709.19)" id="g15">
      <path
        d="m 0,0 c -0.221,-7.057 -5.453,-12.848 -12.258,-13.931 -0.725,-0.115 -1.468,-0.177 -2.224,-0.181 l 14.494,-14.27 -14.626,-14.635 h -29.531 c 5.582,-5.611 13.311,-9.086 21.852,-9.086 17.024,0 30.826,13.801 30.826,30.826 C 8.533,-13.023 5.282,-5.533 0,0"
        style="fill:#004eff"
        id="path13"/>
    </g>
    <g transform="translate(228.41,683.58)" id="g19">
      <path
        d="M 0,0 H -6.474"
        style="fill:#ffffff"
        id="path17"/>
    </g>
    <g transform="translate(221.94,684.07)" id="g23">
      <path
        d="M 0,0 H 4.43 V 3.535 H 0 v 3.574 h 4.43 v 3.892 H -10.45 V -3.324 H 0 Z"
        style="fill:#004eff"
        id="path21"/>
    </g>
  </g>
</svg>
