<?xml version="1.0" encoding="utf-8"?>
<svg version="1.0" xmlns="http://www.w3.org/2000/svg" xmlns:xlink="http://www.w3.org/1999/xlink" viewBox="0 0 480 93" xml:space="preserve">
  <style type="text/css">
    .st0{clip-path:url(#SVGID_00000016072476496745869830000017218899176476331408_);}
    .st1{fill:#010202;}
    .st2{opacity:0.8;}
    .st3{opacity:0.8;fill:#010202;enable-background:new    ;}
  </style>
  <g transform="translate(-64 , -179)">
    <defs>
		  <rect id="SVGID_1_" x="64.1" y="179.2" width="472.6" height="92.3"/>
	  </defs>
    <clipPath id="SVGID_00000065066341566561095240000009958678716859945358_">
		  <use xlink:href="#SVGID_1_"  style="overflow:visible;"/>
	  </clipPath>
    <g style="clip-path:url(#SVGID_00000065066341566561095240000009958678716859945358_);">
		  <path class="st1" d="M191.9,204.7c0-0.7,0.3-1.4,0.8-1.9c0.5-0.5,1.2-0.8,1.9-0.8H219c0.4,0,0.8-0.2,1.1-0.4
			c0.3-0.3,0.4-0.7,0.4-1.1v-1c0-0.4-0.2-0.8-0.4-1.1c-0.3-0.3-0.7-0.4-1.1-0.4h-28.3c-2,0-3.9,0.8-5.3,2.2
			c-1.4,1.4-2.2,3.3-2.2,5.3v14.1c0,2,0.8,3.9,2.2,5.3c1.4,1.4,3.3,2.2,5.3,2.2h19.6c0.7,0,1.4,0.3,1.9,0.9c0.5,0.5,0.8,1.2,0.8,1.9
			v15.4c0,0.7-0.3,1.4-0.8,1.9c-0.5,0.5-1.2,0.8-1.9,0.8H187c-0.4,0-0.8,0.2-1.1,0.4c-0.3,0.3-0.4,0.7-0.4,1.1v1
			c0,0.4,0.2,0.8,0.4,1.1c0.3,0.3,0.7,0.4,1.1,0.4h27.1c1,0,1.9-0.2,2.9-0.6c0.9-0.4,1.7-0.9,2.4-1.6c0.7-0.7,1.2-1.5,1.6-2.4
			c0.4-0.9,0.6-1.9,0.6-2.9v-14c0-2-0.8-3.9-2.2-5.3c-1.4-1.4-3.3-2.2-5.3-2.2h-19.6c-0.7,0-1.4-0.3-1.9-0.8
			c-0.5-0.5-0.8-1.2-0.8-1.9V204.7z"/>
      <path class="st1" d="M463.3,204.7c0-0.7,0.3-1.4,0.8-1.9c0.5-0.5,1.2-0.8,1.9-0.8h24.4c0.4,0,0.8-0.2,1.1-0.4
			c0.3-0.3,0.4-0.7,0.4-1.1v-1c0-0.4-0.2-0.8-0.4-1.1c-0.3-0.3-0.7-0.4-1.1-0.4H462c-2,0-3.9,0.8-5.3,2.2c-1.4,1.4-2.2,3.3-2.2,5.3
			v14.1c0,2,0.8,3.9,2.2,5.3c1.4,1.4,3.3,2.2,5.3,2.2h19.6c0.7,0,1.4,0.3,1.9,0.9c0.5,0.5,0.8,1.2,0.8,1.9v15.4
			c0,0.7-0.3,1.4-0.8,1.9c-0.5,0.5-1.2,0.8-1.9,0.8h-23.3c-0.4,0-0.8,0.2-1.1,0.4c-0.3,0.3-0.4,0.7-0.4,1.1v1c0,0.4,0.2,0.8,0.4,1.1
			c0.3,0.3,0.7,0.4,1.1,0.4h27.2c1,0,1.9-0.2,2.9-0.6c0.9-0.4,1.7-0.9,2.4-1.6c0.7-0.7,1.2-1.5,1.6-2.4s0.6-1.9,0.6-2.9v-14
			c0-2-0.8-3.9-2.2-5.3c-1.4-1.4-3.3-2.2-5.3-2.2h-19.6c-0.7,0-1.4-0.3-1.9-0.8c-0.5-0.5-0.8-1.2-0.8-1.9V204.7z"/>
      <path class="st1" d="M256,247.8h-12.2c-0.7,0-1.4-0.3-1.9-0.9c-0.5-0.5-0.8-1.2-0.8-1.9v-45.6c0-0.4-0.2-0.8-0.4-1.1
			c-0.3-0.3-0.7-0.4-1.1-0.4H234c-0.4,0-0.8,0.2-1.1,0.4c-0.3,0.3-0.4,0.7-0.4,1.1v44.9c0,2,0.8,3.9,2.2,5.3
			c1.4,1.4,3.3,2.2,5.3,2.2h16c0.4,0,0.8-0.2,1.1-0.4c0.3-0.3,0.4-0.7,0.4-1.1v-1c0-0.2,0-0.4-0.1-0.6c-0.1-0.2-0.2-0.4-0.3-0.5
			c-0.1-0.1-0.3-0.3-0.5-0.3S256.2,247.8,256,247.8z"/>
      <path class="st1" d="M345.6,247.8h4.2c0.7,0,1.4-0.3,1.9-0.9c0.5-0.5,0.8-1.2,0.8-1.9v-45.6c0-0.4,0.2-0.8,0.4-1.1
			c0.3-0.3,0.7-0.4,1.1-0.4h5.7c0.4,0,0.8,0.2,1.1,0.4c0.3,0.3,0.4,0.7,0.4,1.1v44.9c0,2-0.8,3.9-2.2,5.3c-1.4,1.4-3.3,2.2-5.3,2.2
			h-8c-0.4,0-0.8-0.2-1.1-0.4c-0.3-0.3-0.4-0.7-0.4-1.1v-1c0-0.2,0-0.4,0.1-0.6c0.1-0.2,0.2-0.4,0.3-0.5c0.1-0.1,0.3-0.3,0.5-0.3
			C345.2,247.9,345.4,247.8,345.6,247.8z"/>
      <path class="st1" d="M327.8,247.8h-4.2c-0.7,0-1.4-0.3-1.9-0.9c-0.5-0.5-0.8-1.2-0.8-1.9v-45.6c0-0.4-0.2-0.8-0.4-1.1
			c-0.3-0.3-0.7-0.4-1.1-0.4h-5.7c-0.4,0-0.8,0.2-1.1,0.4c-0.3,0.3-0.4,0.7-0.4,1.1v44.9c0,2,0.8,3.9,2.2,5.3
			c1.4,1.4,3.3,2.2,5.3,2.2h8c0.4,0,0.8-0.2,1.1-0.4c0.3-0.3,0.4-0.7,0.4-1.1v-1c0-0.2,0-0.4-0.1-0.6c-0.1-0.2-0.2-0.4-0.3-0.5
			c-0.1-0.1-0.3-0.3-0.5-0.3C328.2,247.9,328,247.8,327.8,247.8z"/>
      <path class="st1" d="M287.4,247.8h-11.8c-0.7,0-1.4-0.3-1.9-0.9c-0.5-0.5-0.8-1.2-0.8-1.9v-45.6c0-0.4-0.2-0.8-0.4-1.1
			s-0.7-0.4-1.1-0.4h-5.7c-0.4,0-0.8,0.2-1.1,0.4s-0.4,0.7-0.4,1.1v44.9c0,2,0.8,3.9,2.2,5.3c1.4,1.4,3.3,2.2,5.3,2.2h15.6
			c0.4,0,0.8-0.2,1.1-0.4c0.3-0.3,0.4-0.7,0.4-1.1v-1c0-0.2,0-0.4-0.1-0.6c-0.1-0.2-0.2-0.4-0.3-0.5c-0.1-0.1-0.3-0.3-0.5-0.3
			C287.8,247.9,287.6,247.8,287.4,247.8z"/>
      <path class="st1" d="M441.4,198h-5.7c-0.4,0-0.8,0.2-1.1,0.4c-0.3,0.3-0.4,0.7-0.4,1.1v50.8c0,0.4,0.2,0.8,0.4,1.1
			c0.3,0.3,0.7,0.4,1.1,0.4h5.7c0.4,0,0.8-0.2,1.1-0.4c0.3-0.3,0.4-0.7,0.4-1.1v-50.8c0-0.2,0-0.4-0.1-0.6c-0.1-0.2-0.2-0.4-0.3-0.5
			c-0.1-0.1-0.3-0.3-0.5-0.3C441.8,198,441.6,198,441.4,198z"/>
      <path class="st1" d="M339.6,198h-5.7c-0.4,0-0.8,0.2-1.1,0.4c-0.3,0.3-0.4,0.7-0.4,1.1v50.8c0,0.4,0.2,0.8,0.4,1.1
			c0.3,0.3,0.7,0.4,1.1,0.4h5.7c0.4,0,0.8-0.2,1.1-0.4c0.3-0.3,0.4-0.7,0.4-1.1v-50.8c0-0.2,0-0.4-0.1-0.6c-0.1-0.2-0.2-0.4-0.3-0.5
			c-0.1-0.1-0.3-0.3-0.5-0.3S339.8,198,339.6,198z"/>
      <path class="st1" d="M388.7,201.9h-4.2c-0.7,0-1.4,0.3-1.9,0.8s-0.8,1.2-0.8,1.9v45.7c0,0.4-0.2,0.8-0.4,1.1
			c-0.3,0.3-0.7,0.4-1.1,0.4h-5.7c-0.4,0-0.8-0.2-1.1-0.4c-0.3-0.3-0.4-0.7-0.4-1.1v-44.9c0-2,0.8-3.9,2.2-5.3
			c1.4-1.4,3.3-2.2,5.3-2.2h8c0.4,0,0.8,0.2,1.1,0.4c0.3,0.3,0.4,0.7,0.4,1.1v1c0,0.4-0.1,0.8-0.4,1.1
			C389.5,201.8,389.1,201.9,388.7,201.9z"/>
      <path class="st1" d="M406.5,201.9h4.2c0.7,0,1.4,0.3,1.9,0.8c0.5,0.5,0.8,1.2,0.8,1.9v45.7c0,0.4,0.2,0.8,0.4,1.1
			c0.3,0.3,0.7,0.4,1.1,0.4h5.6c0.4,0,0.8-0.2,1.1-0.4c0.3-0.3,0.4-0.7,0.4-1.1v-44.9c0-2-0.8-3.9-2.2-5.3c-1.4-1.4-3.3-2.2-5.3-2.2
			h-8c-0.4,0-0.8,0.2-1.1,0.4c-0.3,0.3-0.4,0.7-0.4,1.1v1c0,0.2,0,0.4,0.1,0.6s0.2,0.4,0.3,0.5c0.1,0.1,0.3,0.3,0.5,0.3
			C406.1,201.9,406.3,201.9,406.5,201.9z"/>
      <path class="st1" d="M277.2,201.9h11.8c0.7,0,1.4,0.3,1.9,0.8c0.5,0.5,0.8,1.2,0.8,1.9v45.7c0,0.4,0.2,0.8,0.4,1.1
			c0.3,0.3,0.7,0.4,1.1,0.4h5.7c0.4,0,0.8-0.2,1.1-0.4c0.3-0.3,0.4-0.7,0.4-1.1v-44.9c0-2-0.8-3.9-2.2-5.3s-3.3-2.2-5.3-2.2h-15.6
			c-0.4,0-0.8,0.2-1.1,0.4c-0.3,0.3-0.4,0.7-0.4,1.1v1c0,0.4,0.1,0.8,0.4,1C276.4,201.8,276.8,201.9,277.2,201.9z"/>
      <path class="st1" d="M501.3,201.9h8.9c0.7,0,1.4,0.3,1.9,0.8c0.5,0.5,0.8,1.2,0.8,1.9v45.7c0,0.4,0.2,0.8,0.4,1.1
			c0.3,0.3,0.7,0.4,1.1,0.4h5.7c0.4,0,0.8-0.2,1.1-0.4c0.3-0.3,0.4-0.7,0.4-1.1v-44.9c0-2-0.8-3.9-2.2-5.3s-3.3-2.2-5.3-2.2h-12.8
			c-0.4,0-0.8,0.2-1.1,0.4c-0.3,0.3-0.4,0.7-0.4,1.1v1c0,0.4,0.1,0.8,0.4,1C500.6,201.7,500.9,201.9,501.3,201.9z"/>
      <path class="st1" d="M394.7,251.9h5.7c0.4,0,0.8-0.2,1.1-0.4c0.3-0.3,0.4-0.7,0.4-1.1v-50.8c0-0.4-0.2-0.8-0.4-1.1
			c-0.3-0.3-0.7-0.4-1.1-0.4h-5.7c-0.4,0-0.8,0.2-1.1,0.4c-0.3,0.3-0.4,0.7-0.4,1.1v50.8c0,0.2,0,0.4,0.1,0.6
			c0.1,0.2,0.2,0.3,0.3,0.5c0.1,0.1,0.3,0.3,0.5,0.3C394.4,251.8,394.6,251.9,394.7,251.9z"/>
      <path class="st1" d="M535.2,197.9h-5.7c-0.4,0-0.8,0.2-1.1,0.4c-0.3,0.3-0.4,0.7-0.4,1.1v5.2c0,0.4,0.2,0.8,0.4,1.1
			c0.3,0.3,0.7,0.4,1.1,0.4h5.8c0.4,0,0.8-0.2,1.1-0.4c0.3-0.3,0.4-0.7,0.4-1.1v-5.2c0-0.2,0-0.4-0.1-0.6c-0.1-0.2-0.2-0.4-0.4-0.5
			c-0.1-0.1-0.3-0.2-0.5-0.3C535.6,197.9,535.4,197.9,535.2,197.9z"/>
      <path class="st1" d="M123.1,250.4c-4.9,5.8-10.7,10.7-17.2,14.5c0,0-35.9-18.7-35.9-66.5c19.4-0.9,33.1-9.6,35.9-12.4
			c1.7,1.7,7.2,5.4,15.6,8.4v-5.5c-5.8-2-11.1-5.3-15.5-9.6c-2.8,2.8-13.6,13.2-41.6,14.6c-2.8,56.4,41.6,77.7,41.6,77.7
			c9.6-5.2,18-12.4,24.6-21.1H123.1z"/>
      <path class="st1" d="M133.8,219.8h-13v11.8h13V219.8z"/>
      <path class="st1" d="M119.9,232.8h-3.8v3.3h3.8V232.8z"/>
      <path class="st1" d="M128.4,238.6h-5.7v5.2h5.7V238.6z"/>
      <path class="st1" d="M142.4,239.4h-8.5v7.5h8.5V239.4z"/>
      <path class="st1" d="M164.2,214.6h-10.2v9.2h10.2V214.6z"/>
      <path class="st1" d="M163.3,197.2h-4.7v4.2h4.7V197.2z"/>
      <path class="st1" d="M154.1,199.8h-4.7v4.2h4.7V199.8z"/>
      <path class="st1" d="M154.1,224.7h-6v5.5h6V224.7z"/>
      <path class="st1" d="M149.8,234.5h-6.4v5.7h6.4V234.5z"/>
      <path class="st1" d="M144.5,190.2h-7.1v6.3h7.1V190.2z"/>
      <path class="st1" d="M130.9,184.6h-6.3v5.6h6.3V184.6z"/>
      <path class="st1" d="M123.9,195.6h-8.1v7.2h8.1V195.6z"/>
      <path class="st1" d="M116.4,199.3h-0.6v7.2h0.6V199.3z"/>
      <path class="st1" d="M128.5,189.9h-0.7v7.2h0.7V189.9z"/>
      <path class="st1" d="M142.3,195.6h-0.6v15.9h0.6V195.6z"/>
      <path class="st1" d="M160.5,200.5h-0.6v15.9h0.6V200.5z"/>
      <path class="st1" d="M160.2,200.8h-7.6v0.7h7.6V200.8z"/>
      <path class="st1" d="M154.4,216.7h-7.7v0.6h7.7V216.7z"/>
      <path class="st1" d="M149.2,225.2h-7.7v0.6h7.7V225.2z"/>
      <path class="st1" d="M139.5,227.5h-7.7v0.6h7.7V227.5z"/>
      <path class="st1" d="M146.3,239.4h-7.6v0.7h7.6V239.4z"/>
      <path class="st1" d="M153.2,226.1l-0.6-0.4l2.1-3.2l0.5,0.4L153.2,226.1z"/>
      <path class="st1" d="M119.3,234l-0.5-0.5l2.7-2.7l0.5,0.5L119.3,234z"/>
      <path class="st1" d="M138.5,212.6h-7.6v0.6h7.6V212.6z"/>
      <path class="st1" d="M126,206h-7.7v0.6h7.7V206z"/>
      <path class="st1" d="M131.2,199.9h-0.7v15.9h0.7V199.9z"/>
      <path class="st1" d="M128.4,226.7h-0.7v15.9h0.7V226.7z"/>
      <path class="st1" d="M149.8,225.1h-0.7v12h0.7V225.1z"/>
      <path class="st1" d="M137.6,196.5h-11.9v10.8h11.9V196.5z"/>
      <path class="st1" d="M132.2,215h-3.1v2.8h3.1V215z"/>
      <path class="st1" d="M147,209.8h-9v7.9h9V209.8z"/>
      <path class="st1" d="M119,206h-9.3v8.5h9.3V206z"/>
      <path class="st1" d="M143.1,223.6h-5v4.6h5V223.6z"/>
      <g class="st2">
			<path class="st3" d="M105.9,264.9V186c-2.8,2.8-16.6,11.5-35.9,12.4C69.9,246.2,105.9,264.9,105.9,264.9z"/>
		</g>
	</g>
  </g>
</svg>
