<?xml version="1.0" encoding="UTF-8" standalone="no"?>
<svg viewBox="0 0 100 30" version="1.1" xmlns="http://www.w3.org/2000/svg">
  <defs id="defs2">
    <rect x="181.85519" y="113.56024" width="363.71042" height="189.00235" id="rect2854"/>
  </defs>
  <g id="layer1">
    <path
      d="m 19.504325,8.9884846 c 0.210639,2.1301434 -0.555877,3.6398934 -2.299857,4.5293894 1.369266,0.327665 2.393432,0.930417 3.072184,1.808288 0.678753,0.877732 0.942215,2.130144 0.789969,3.756922 -0.08195,0.830997 -0.272108,1.562435 -0.57051,2.194453 -0.2984,0.632017 -0.675916,1.152853 -1.132407,1.562436 -0.456491,0.409616 -1.024029,0.752055 -1.702919,1.027002 -0.678752,0.275119 -1.389884,0.476936 -2.13298,0.605589 -0.743233,0.128651 -1.594676,0.216449 -2.55436,0.263323 v 4.476529 h -2.70363 v -4.40634 c -0.93623,0 -1.6501986,-0.0059 -2.1417684,-0.01761 v 4.424016 H 5.4247286 V 24.73578 c -0.2106372,0 -0.5266468,-0.003 -0.9480259,-0.0089 -0.4214138,-0.0059 -0.743235,-0.0089 -0.9654954,-0.0089 H 0 L 0.54425401,21.50531 H 2.4930266 c 0.5851436,0 0.9246059,-0.2984 1.0181807,-0.895339 V 8.4969496 C 3.3591018,7.7010303 2.8383006,7.3032087 1.9487715,7.3032087 H 0 V 4.4240186 l 3.7218455,0.017608 c 0.7490456,0 1.3167544,-0.00588 1.702918,-0.017608 V 9.9650473e-7 H 8.1283924 V 4.3362554 C 9.0880782,4.312808 9.802046,4.3011788 10.270161,4.3011788 V 0 h 2.703629 v 4.4240176 c 0.924607,0.081953 1.743808,0.2136128 2.457776,0.3949856 0.71397,0.1813708 1.375253,0.4446952 1.98385,0.7899343 0.608598,0.34524 1.091346,0.8017318 1.448416,1.3692682 0.356725,0.5677078 0.570337,1.2378122 0.640493,2.0102789 z m -3.774532,9.5676774 c 0,-0.421413 -0.08776,-0.79592 -0.263322,-1.123587 -0.17556,-0.327667 -0.392148,-0.596941 -0.649487,-0.807577 -0.257512,-0.210638 -0.593964,-0.389174 -1.009394,-0.535433 -0.415429,-0.146296 -0.798756,-0.254502 -1.149842,-0.32483 -0.351087,-0.07015 -0.784123,-0.122841 -1.299112,-0.157919 -0.514988,-0.03508 -0.918795,-0.05269 -1.211351,-0.05269 -0.2925878,0 -0.6701036,0.0059 -1.1323731,0.01761 -0.4623025,0.01162 -0.7402595,0.01761 -0.8338334,0.01761 v 5.933767 c 0.093612,0 0.3101961,0.003 0.6494869,0.0089 0.3394623,0.0059 0.6202207,0.0089 0.8426554,0.0089 0.2224338,0 0.5324582,-0.0089 0.9304192,-0.02626 0.397959,-0.01748 0.740258,-0.04089 1.027002,-0.07015 0.286743,-0.02927 0.620221,-0.07897 1.000746,-0.149269 0.380352,-0.07015 0.705182,-0.152107 0.974317,-0.245854 0.269135,-0.09361 0.547089,-0.21645 0.833833,-0.368694 0.286743,-0.152106 0.517825,-0.327667 0.693386,-0.526647 0.175559,-0.19898 0.318983,-0.433037 0.430062,-0.702173 0.110976,-0.269204 0.166807,-0.567743 0.166807,-0.895547 z m -1.246425,-8.356467 c 0,-0.3861633 -0.07313,-0.7286003 -0.219424,-1.0270025 C 14.11765,8.8742921 13.939113,8.6284384 13.72851,8.4352699 13.517873,8.2421024 13.236941,8.0783727 12.885854,7.9437011 12.534769,7.8090644 12.212948,7.7126186 11.920359,7.6539484 11.62777,7.5954537 11.267898,7.5485432 10.840671,7.5134662 10.413446,7.4783892 10.073983,7.4637605 9.8224902,7.4695702 c -0.2516642,0.00588 -0.5676739,0.011619 -0.9480267,0.017608 -0.380352,0.00588 -0.6115709,0.00877 -0.693385,0.00877 v 5.3895128 c 0.058535,0 0.2604873,0.003 0.6055879,0.0089 0.3452759,0.0058 0.6173855,0.0058 0.8163646,0 0.1989811,-0.0059 0.491569,-0.01761 0.877734,-0.03508 0.386164,-0.01761 0.707984,-0.04971 0.965495,-0.09658 0.257512,-0.04688 0.558888,-0.111218 0.904161,-0.19317 0.345275,-0.08195 0.629044,-0.190158 0.851442,-0.324829 0.222435,-0.134636 0.43885,-0.29259 0.649486,-0.473927 0.210639,-0.181373 0.368696,-0.406782 0.473929,-0.675916 0.105232,-0.269135 0.15809,-0.567329 0.15809,-0.895134 z"
      fill="#fda806" id="path49" style="stroke-width:0.0345932"/>
    <g aria-label="Deepex" transform="matrix(0.28863581,0,0,0.28863581,-30.508897,-42.219888)" id="text2852">
      <path
        d="m 188.41797,182.21262 h 16.11459 q 7.43751,0 12.79688,1.38542 5.35938,1.38541 8.9323,4.44792 4.08334,3.5 6.125,8.02083 2.07813,4.52084 2.07813,9.88022 0,5.10416 -1.85938,9.58854 -1.82291,4.48438 -5.39583,7.83855 -3.53646,3.31771 -8.78647,5.25 -5.21354,1.93229 -11.95833,1.93229 h -18.04689 z m 8.13021,44.80731 h 8.64063 q 4.08334,0 7.69272,-1.34896 3.60937,-1.34896 6.27083,-4.01042 2.69792,-2.66145 4.22917,-6.52604 1.56771,-3.90104 1.56771,-9.00521 0,-4.48438 -1.45833,-8.20313 -1.45834,-3.75521 -4.08334,-6.45313 -2.625,-2.69792 -6.27084,-4.19271 -3.60937,-1.49479 -7.91146,-1.49479 h -8.67709 z"
        id="path26379"/>
      <path
        d="m 261.2253,231.35848 q -3.79167,0 -7.14584,-1.42188 -3.31771,-1.42188 -5.79688,-3.86458 -2.47917,-2.44271 -3.9375,-5.72397 -1.42188,-3.31771 -1.42188,-7.03646 0,-4.48437 1.31251,-8.27604 1.3125,-3.82813 3.71875,-6.59896 2.40625,-2.77084 5.76042,-4.33855 3.39062,-1.56771 7.54687,-1.56771 3.64584,0 6.70834,1.3125 3.0625,1.27605 5.25,3.46355 2.22396,2.15104 3.42709,4.99479 1.23958,2.84375 1.23958,5.94271 h -27.81772 q 0,3.75521 0.94792,6.96355 0.98437,3.20833 2.73437,5.54167 1.75001,2.33333 4.15626,3.64583 2.40625,1.3125 5.28646,1.3125 2.40625,0 4.63021,-0.76562 2.22396,-0.80209 4.01042,-2.07813 1.82291,-1.27604 3.09896,-2.91667 1.27604,-1.64062 1.78646,-3.39062 l 2.15104,0.94791 q -0.80209,2.88021 -2.58854,5.39584 -1.78646,2.51562 -4.19271,4.41146 -2.3698,1.85937 -5.17709,2.95313 -2.80729,1.09375 -5.6875,1.09375 z m 7.36458,-26.10418 q 0,-2.11459 -0.76562,-3.93751 -0.72917,-1.82291 -2.04167,-3.13541 -1.3125,-1.34896 -3.0625,-2.11459 -1.75,-0.76562 -3.75521,-0.76562 -1.67709,0 -3.20834,0.76562 -1.53125,0.72917 -2.73437,2.07813 -1.20313,1.3125 -2.00521,3.13542 -0.76563,1.82291 -0.91146,3.9375 z"
        id="path26381"/>
      <path
        d="m 305.26698,231.35848 q -3.79166,0 -7.14583,-1.42188 -3.31771,-1.42188 -5.79688,-3.86458 -2.47917,-2.44271 -3.9375,-5.72397 -1.42188,-3.31771 -1.42188,-7.03646 0,-4.48437 1.3125,-8.27604 1.3125,-3.82813 3.71875,-6.59896 2.40626,-2.77084 5.76042,-4.33855 3.39063,-1.56771 7.54688,-1.56771 3.64584,0 6.70834,1.3125 3.0625,1.27605 5.25,3.46355 2.22396,2.15104 3.42709,4.99479 1.23958,2.84375 1.23958,5.94271 h -27.81772 q 0,3.75521 0.94792,6.96355 0.98437,3.20833 2.73437,5.54167 1.75,2.33333 4.15625,3.64583 2.40625,1.3125 5.28646,1.3125 2.40626,0 4.63021,-0.76562 2.22396,-0.80209 4.01042,-2.07813 1.82292,-1.27604 3.09896,-2.91667 1.27605,-1.64062 1.78646,-3.39062 l 2.15105,0.94791 q -0.80209,2.88021 -2.58855,5.39584 -1.78646,2.51562 -4.19271,4.41146 -2.36979,1.85937 -5.17708,2.95313 -2.8073,1.09375 -5.68751,1.09375 z m 7.36459,-26.10418 q 0,-2.11459 -0.76563,-3.93751 -0.72916,-1.82291 -2.04166,-3.13541 -1.3125,-1.34896 -3.0625,-2.11459 -1.75,-0.76562 -3.75521,-0.76562 -1.67709,0 -3.20834,0.76562 -1.53125,0.72917 -2.73438,2.07813 -1.20312,1.3125 -2.0052,3.13542 -0.76563,1.82291 -0.91146,3.9375 z"
        id="path26383"/>
      <path
        d="m 338.84512,192.53033 h 2.11459 v 8.38542 q 1.13021,-1.42187 2.47917,-2.91666 1.38541,-1.4948 3.02604,-2.69792 1.67708,-1.23959 3.68229,-2.00521 2.00521,-0.76563 4.375,-0.76563 3.31771,0 6.01563,1.38542 2.69792,1.38542 4.59375,3.75521 1.9323,2.36979 2.95313,5.57813 1.05729,3.17187 1.05729,6.78125 0,4.63021 -1.27604,8.56771 -1.27604,3.90105 -3.64583,6.7448 -2.3698,2.84375 -5.76042,4.44792 -3.39063,1.56771 -7.58334,1.56771 -1.53125,0 -2.88021,-0.1823 -1.3125,-0.14583 -2.51563,-0.47395 -1.16666,-0.32813 -2.29687,-0.83855 -1.09375,-0.51041 -2.22396,-1.23958 v 17.64584 h -7.43751 v -51.66148 z m 2.11459,27.96356 q 0,1.67708 0.72917,3.17187 0.72916,1.45834 2.04166,2.58855 1.3125,1.09375 3.13542,1.75 1.82292,0.61979 4.01042,0.61979 2.07813,0 3.90104,-1.05729 1.85938,-1.05729 3.20834,-2.98959 1.38542,-1.96875 2.15104,-4.66667 0.80208,-2.69791 0.80208,-5.97917 0,-4.11979 -0.72916,-7.18229 -0.72917,-3.09896 -2.04167,-5.14063 -1.27604,-2.04167 -3.0625,-3.0625 -1.75,-1.02083 -3.86459,-1.02083 -1.60416,0 -3.09896,0.51041 -1.45833,0.47396 -2.77083,1.3125 -1.3125,0.83855 -2.44271,1.9323 -1.09375,1.09375 -1.96875,2.29687 z"
        id="path26385"/>
      <path
        d="m 395.53786,231.35848 q -3.79167,0 -7.14584,-1.42188 -3.31771,-1.42188 -5.79688,-3.86458 -2.47916,-2.44271 -3.9375,-5.72397 -1.42187,-3.31771 -1.42187,-7.03646 0,-4.48437 1.3125,-8.27604 1.3125,-3.82813 3.71875,-6.59896 2.40625,-2.77084 5.76042,-4.33855 3.39062,-1.56771 7.54688,-1.56771 3.64583,0 6.70833,1.3125 3.0625,1.27605 5.25,3.46355 2.22396,2.15104 3.42709,4.99479 1.23958,2.84375 1.23958,5.94271 H 384.3816 q 0,3.75521 0.94792,6.96355 0.98437,3.20833 2.73438,5.54167 1.75,2.33333 4.15625,3.64583 2.40625,1.3125 5.28646,1.3125 2.40625,0 4.63021,-0.76562 2.22396,-0.80209 4.01042,-2.07813 1.82292,-1.27604 3.09896,-2.91667 1.27604,-1.64062 1.78646,-3.39062 l 2.15104,0.94791 q -0.80208,2.88021 -2.58854,5.39584 -1.78646,2.51562 -4.19271,4.41146 -2.3698,1.85937 -5.17709,2.95313 -2.80729,1.09375 -5.6875,1.09375 z m 7.36458,-26.10418 q 0,-2.11459 -0.76562,-3.93751 -0.72917,-1.82291 -2.04167,-3.13541 -1.3125,-1.34896 -3.0625,-2.11459 -1.75,-0.76562 -3.75521,-0.76562 -1.67708,0 -3.20834,0.76562 -1.53125,0.72917 -2.73437,2.07813 -1.20313,1.3125 -2.00521,3.13542 -0.76563,1.82291 -0.91146,3.9375 z"
        id="path26387"/>
      <path
        d="m 417.59516,193.22304 h 8.75 l 25.81252,37.33335 h -8.71355 z m 4.04688,37.33335 h -4.04688 l 30.47918,-37.33335 h 4.08334 z"
        id="path26389"/>
    </g>
  </g>
</svg>
