<?xml version="1.0" encoding="UTF-8" standalone="no"?>
<svg version="1.1" viewBox="0 0 370 102" xmlns="http://www.w3.org/2000/svg">
  <g id="g15" transform="matrix(1.3333333,0,0,-1.3333333,-173.4996,325.83206)">
    <g id="g21">
      <g id="g23" clip-path="url(#clipPath27)">
        <g id="g29">
          <g id="g79" transform="translate(218.1753,193.4347)">
            <path
              d="M 0,0 H -6.168 V 15.188 H 7.523 V 9.857 H 0 Z M 13.798,20.375 H -6.168 v 5.33 h 19.966 z"
              style="fill:#ffffff;fill-opacity:1;fill-rule:nonzero;stroke:none"
              id="path81"/>
          </g>
          <g id="g83" transform="translate(246.5366,192.9894)">
            <path
              d="m 0,0 c -3.542,0 -6.316,0.974 -8.325,2.923 -2.021,1.937 -3.03,4.783 -3.03,8.539 v 14.724 h 6.203 V 11.622 c 0,-2.127 0.464,-3.689 1.39,-4.688 0.951,-1.022 2.229,-1.533 3.833,-1.533 1.605,0 2.882,0.487 3.832,1.461 0.928,0.999 1.391,2.52 1.391,4.564 v 14.76 h 6.204 V 11.658 C 11.498,9.721 11.23,8.027 10.695,6.577 10.173,5.151 9.418,3.945 8.432,2.959 7.434,1.984 6.215,1.241 4.777,0.73 3.339,0.243 1.747,0 0,0"
              style="fill:#ffffff;fill-opacity:1;fill-rule:nonzero;stroke:none"
              id="path85"/>
          </g>
          <g id="g87" transform="translate(267.4116,193.4347)">
            <path
              d="M 0,0 H -6.168 V 15.188 H 7.522 V 9.857 H 0 Z M 13.798,20.375 H -6.168 v 5.33 h 19.966 z"
              style="fill:#ffffff;fill-opacity:1;fill-rule:nonzero;stroke:none"
              id="path89"/>
          </g>
          <g id="g91" transform="translate(295.7729,192.9894)">
            <path
              d="m 0,0 c -3.542,0 -6.316,0.974 -8.325,2.923 -2.021,1.937 -3.03,4.783 -3.03,8.539 v 14.724 h 6.203 V 11.622 c 0,-2.127 0.464,-3.689 1.39,-4.688 0.952,-1.022 2.229,-1.533 3.833,-1.533 1.605,0 2.882,0.487 3.832,1.461 0.928,0.999 1.391,2.52 1.391,4.564 v 14.76 h 6.204 V 11.658 C 11.498,9.721 11.23,8.027 10.695,6.577 10.172,5.151 9.418,3.945 8.431,2.959 7.433,1.984 6.214,1.241 4.777,0.73 3.338,0.243 1.747,0 0,0"
              style="fill:#ffffff;fill-opacity:1;fill-rule:nonzero;stroke:none"
              id="path93"/>
          </g>
          <g id="g95" transform="translate(318.251,213.7746)">
            <path
              d="M 0,0 H -7.773 V 5.401 H 13.993 V 0 H 6.203 V -20.376 H 0 Z"
              style="fill:#ffffff;fill-opacity:1;fill-rule:nonzero;stroke:none"
              id="path97"/>
          </g>
          <g id="g99" transform="translate(346.8086,192.9894)">
            <path
              d="m 0,0 c -3.542,0 -6.316,0.974 -8.325,2.923 -2.021,1.937 -3.03,4.783 -3.03,8.539 v 14.724 h 6.203 V 11.622 c 0,-2.127 0.463,-3.689 1.39,-4.688 0.951,-1.022 2.229,-1.533 3.833,-1.533 1.605,0 2.882,0.487 3.832,1.461 0.928,0.999 1.391,2.52 1.391,4.564 v 14.76 h 6.204 V 11.658 C 11.498,9.721 11.23,8.027 10.695,6.577 10.173,5.151 9.418,3.945 8.432,2.959 7.434,1.984 6.215,1.241 4.777,0.73 3.339,0.243 1.747,0 0,0"
              style="fill:#ffffff;fill-opacity:1;fill-rule:nonzero;stroke:none"
              id="path101"/>
          </g>
          <g id="g103" transform="translate(384.2607,193.3986)">
            <path
              d="m 0,0 h -7.112 l -9.092,13.353 h 5.062 c 2.556,0 3.899,1.169 4.03,3.511 0,2.376 -1.379,3.583 -4.136,3.618 h -5.295 V 0 h -6.203 v 25.777 h 11.979 c 3.351,0 5.93,-0.903 7.737,-2.71 1.462,-1.485 2.192,-3.428 2.192,-5.829 0,-4.207 -1.812,-6.886 -5.436,-8.039 z"
              style="fill:#ffffff;fill-opacity:1;fill-rule:nonzero;stroke:none"
              id="path105"/>
          </g>
          <g id="g107" transform="translate(393.0498,198.6222)">
            <path
              d="M 0,0 H 14.278 V -5.224 H -5.58 V 10.25 H 6.827 V 5.027 H 0 Z M -5.58,20.518 H 14.278 V 15.295 H -5.58 Z"
              style="fill:#ffffff;fill-opacity:1;fill-rule:nonzero;stroke:none"
              id="path109"/>
          </g>
          <g id="g111" transform="translate(179.9327,184.4384)">
            <path
              d="M 0,0 H -22.726 V 43.11 H 0 c 0.486,0 0.966,-0.022 1.444,-0.054 l 0.002,0.003 c -1.56,5.723 -3.739,10.328 -6.345,13.216 -3.659,4.054 -10.316,3.329 -12.164,3.055 -18.444,-2.738 -32.595,-18.638 -32.595,-37.843 0,-18.337 12.9,-33.661 30.119,-37.392 2.624,-0.569 11.008,-1.783 15.259,3.435 2.364,2.902 4.332,7.237 5.764,12.522 L 1.48,0.056 C 0.99,0.023 0.498,0 0,0"
              style="fill:#ffffff;fill-opacity:1;fill-rule:nonzero;stroke:none"
              id="path113"/>
          </g>
          <g id="g119" transform="translate(181.3797,227.4946)">
            <path
              d="m 0,0 c 1.674,-6.144 2.635,-13.577 2.635,-21.57 0,-7.921 -0.94,-15.311 -2.597,-21.43 11.211,0.764 20.07,10.094 20.07,21.499 C 20.108,-10.084 11.229,-0.745 0,0"
              style="fill:#00e900;fill-opacity:1;fill-rule:nonzero;stroke:none"
              id="path121"/>
          </g>
        </g>
      </g>
    </g>
  </g>
</svg>
