<?xml version="1.0" encoding="UTF-8"?>
<svg version="1.1" viewBox="0 0 370 102" xmlns="http://www.w3.org/2000/svg">
  <g transform="matrix(1.3333 0 0 -1.3333 -173.5 748.19)">
    <g clip-path="url(#clipPath27)">
      <g transform="translate(218.18 510.43)">
        <path d="m0 0h-6.168v15.188h13.691v-5.331h-7.523zm13.798 20.375h-19.966v5.33h19.966z" style="fill:#004eff"/>
      </g>
      <g transform="translate(246.54 509.99)">
        <path
          d="m0 0c-3.542 0-6.316 0.974-8.325 2.923-2.021 1.937-3.03 4.783-3.03 8.539v14.725h6.203v-14.565c0-2.127 0.464-3.689 1.39-4.688 0.951-1.022 2.229-1.533 3.833-1.533 1.605 0 2.882 0.487 3.832 1.461 0.928 0.999 1.391 2.52 1.391 4.564v14.761h6.204v-14.529c0-1.937-0.268-3.631-0.803-5.081-0.522-1.426-1.277-2.632-2.263-3.618-0.998-0.975-2.217-1.718-3.655-2.229-1.438-0.487-3.03-0.73-4.777-0.73"
          style="fill:#004eff"/>
      </g>
      <g transform="translate(267.41 510.43)">
        <path d="m0 0h-6.168v15.188h13.69v-5.331h-7.522zm13.798 20.375h-19.966v5.33h19.966z" style="fill:#004eff"/>
      </g>
      <g transform="translate(295.77 509.99)">
        <path
          d="m0 0c-3.542 0-6.316 0.974-8.325 2.923-2.021 1.937-3.03 4.783-3.03 8.539v14.725h6.203v-14.565c0-2.127 0.464-3.689 1.39-4.688 0.952-1.022 2.229-1.533 3.833-1.533 1.605 0 2.882 0.487 3.832 1.461 0.928 0.999 1.391 2.52 1.391 4.564v14.761h6.204v-14.529c0-1.937-0.268-3.631-0.803-5.081-0.523-1.426-1.277-2.632-2.264-3.618-0.998-0.975-2.217-1.718-3.654-2.229-1.439-0.487-3.03-0.73-4.777-0.73"
          style="fill:#004eff"/>
      </g>
      <g transform="translate(318.25 530.77)">
        <path d="m0 0h-7.773v5.401h21.766v-5.401h-7.79v-20.376h-6.203z" style="fill:#004eff"/>
      </g>
      <g transform="translate(346.81 509.99)">
        <path
          d="m0 0c-3.542 0-6.316 0.974-8.325 2.923-2.021 1.937-3.03 4.783-3.03 8.539v14.725h6.203v-14.565c0-2.127 0.463-3.689 1.39-4.688 0.951-1.022 2.229-1.533 3.833-1.533 1.605 0 2.882 0.487 3.832 1.461 0.928 0.999 1.391 2.52 1.391 4.564v14.761h6.204v-14.529c0-1.937-0.268-3.631-0.803-5.081-0.522-1.426-1.277-2.632-2.263-3.618-0.998-0.975-2.217-1.718-3.655-2.229-1.438-0.487-3.03-0.73-4.777-0.73"
          style="fill:#004eff"/>
      </g>
      <g transform="translate(384.26 510.39)">
        <path
          d="m0 0h-7.112l-9.092 13.353h5.062c2.556 0 3.899 1.169 4.03 3.511 0 2.377-1.379 3.583-4.136 3.619h-5.295v-20.483h-6.203v25.777h11.979c3.351 0 5.93-0.903 7.737-2.71 1.462-1.485 2.192-3.428 2.192-5.829 0-4.207-1.812-6.887-5.436-8.039z"
          style="fill:#004eff"/>
      </g>
      <g transform="translate(393.05 515.62)">
        <path d="m0 0h14.278v-5.224h-19.858v15.474h12.407v-5.223h-6.827zm-5.58 20.518h19.858v-5.223h-19.858z"
              style="fill:#004eff"/>
      </g>
      <g transform="translate(179.93 501.44)">
        <path
          d="m0 0h-22.726v43.11h22.726c0.486 0 0.966-0.022 1.444-0.054l2e-3 3e-3c-1.56 5.723-3.739 10.328-6.345 13.216-3.659 4.054-10.316 3.33-12.164 3.055-18.444-2.737-32.595-18.638-32.595-37.843 0-18.337 12.9-33.661 30.119-37.392 2.624-0.569 11.008-1.783 15.259 3.435 2.364 2.902 4.332 7.237 5.764 12.522l-4e-3 4e-3c-0.49-0.033-0.982-0.056-1.48-0.056"
          style="fill:#004eff"/>
      </g>
      <g transform="translate(181.38 544.49)">
        <path
          d="m0 0c1.674-6.144 2.635-13.577 2.635-21.569 0-7.922-0.94-15.312-2.597-21.43 11.211 0.763 20.07 10.093 20.07 21.498 0 11.418-8.879 20.756-20.108 21.501"
          style="fill:#00e900"/>
      </g>
    </g>
  </g>
</svg>
