<svg xmlns="http://www.w3.org/2000/svg" viewBox="0 0 24 24" fill="none">
  <path
    d="M22.855 21.184a.168.168 0 0 1-.144.254h-4.966c-.147 0-.192-.133-.169-.192.015-.039.052-.075.112-.092.06-.017.196-.016.196-.016.29.016.556.031.768-.17.213-.201.324-.447.335-.738.012-.29-.047-.54-.189-.845a2.684 2.684 0 0 0-.085-.164l-.025-.044-.05-.085-7.724-13.37-7.727 13.374-.07.122c-.03.054-.063.115-.087.167-.142.305-.2.555-.19.845.012.291.124.537.336.738.212.201.481.238.76.238h.107l.037.004c.045.005.065.04.079.088.025.086-.067.14-.116.14H1.29a.169.169 0 0 1-.146-.254l5.038-8.721v-.002l.091-.16.001.003 5.58-9.657a.17.17 0 0 1 .292 0l4.732 8.192 1.159-1.88a.106.106 0 0 1 .182.108l-1.167 2.072 5.803 10.045ZM4.232 9.01s.002-.11.057-.118a.08.08 0 0 1 .08.04l1.51 2.67-.278.16L4.23 9.01Z"
    fill="#000"/>
  <path
    d="m7.08 13.73-.278.16 4.117 7.287c.065.114.416.114.48 0l3.776-6.705-.259-.45-3.926 6.37s-.043.075-.072.075c-.034 0-.074-.075-.074-.075L7.08 13.73Z"
    fill="#000"/>
  <path
    d="M10.829 9.56c0 2.038-.748 3.441-2.286 3.441a5.003 5.003 0 0 0 0 .077v.076c1.538 0 2.286 1.403 2.286 3.441h.161c0-2.038.748-3.441 2.285-3.441V13c-1.537 0-2.285-1.403-2.285-3.441h-.162Z"
    fill="#000"/>
</svg>
