<?xml version="1.0" encoding="UTF-8"?>
<svg width="77px" height="20px" viewBox="0 0 77 20" version="1.1" xmlns="http://www.w3.org/2000/svg" xmlns:xlink="http://www.w3.org/1999/xlink">
    <title>2</title>
    <g id="最终版" stroke="none" stroke-width="1" fill="none" fill-rule="evenodd">
        <g id="Stakestone首页-banner" transform="translate(-920, -661)">
            <g id="编组-8" transform="translate(0, 627)">
                <g id="编组-9" transform="translate(120, 28.0032)">
                    <g id="编组-6备份-2" transform="translate(632, 0)">
                        <g id="2" transform="translate(168, 5.9968)">
                            <path d="M11.0308422,0.417189756 L14.2339286,3.61117938 C14.2524042,3.62960253 14.2524042,3.65942824 14.2339286,3.67780427 L6.41311881,11.4764501 C6.38334991,11.5061345 6.33245927,11.4850727 6.33245927,11.4431377 L6.33245927,3.12275392 C6.33245927,3.11022053 6.33742075,3.09825255 6.34625692,3.08939436 L9.02611943,0.417189756 C9.57967921,-0.134845036 10.4772352,-0.134845036 11.0308422,0.417189756 Z" id="路径" fill="#27E5F1"></path>
                            <path d="M11.6188961,10.3501408 C11.6004677,10.3317648 11.6004677,10.3018919 11.6188961,10.2835159 L16.2386986,5.67688076 C16.257127,5.65845761 16.2870376,5.65845761 16.3055132,5.67688076 L19.6417564,9.00364898 C20.1953634,9.55563665 20.1953634,10.4506436 19.6417564,11.0026783 L15.9909552,14.6431113 C15.9724796,14.6615344 15.9425689,14.6615344 15.9241405,14.6431113 L11.6188961,10.3501408 Z" id="路径" fill="#399BFF"></path>
                            <path d="M9.61417333,12.3491702 C9.59569772,12.3307941 9.56578706,12.3307941 9.54735869,12.3491702 L5.6898763,16.1956973 C5.67140068,16.2141205 5.67140068,16.2439462 5.6898763,16.2623693 L9.02611943,19.5891376 C9.57967921,20.1411724 10.4772352,20.1411724 11.0308422,19.5891376 L13.9193705,16.7088126 C13.9378461,16.6903895 13.9378461,16.6605638 13.9193705,16.6421878 L9.61417333,12.3491702 Z" id="路径" fill="#399BFF"></path>
                            <path d="M3.49732595,6.04407153 C3.49732595,6.00208937 3.44638806,5.98102761 3.41661916,6.01071197 L0.415205274,9.00364898 C-0.138401758,9.55563665 -0.138401758,10.4506436 0.415205274,11.0026783 L3.41661916,13.9955682 C3.44638806,14.0252526 3.49732595,14.004238 3.49732595,13.9622558 L3.49732595,6.04407153 Z" id="路径" fill="#27E5F1"></path>
                            <path d="M27.4643144,15.3642055 L27.4643144,3.97488342 L29.8098675,3.97488342 L29.8098675,9.20804697 L34.7598213,3.97488342 L37.3719241,3.97488342 L29.7941325,11.7659432 L29.7941325,15.3642055 L27.4643144,15.3642055 Z M34.8226667,15.3642055 L30.4766436,9.83382148 L31.9828082,8.2302537 L37.7409639,15.3642055 L34.8226667,15.3642055 Z M38.752634,15.3642055 L38.752634,6.71272344 L41.0117627,6.71272344 L41.0117627,15.3642055 L38.752634,15.3642055 Z M38.5801634,4.49115563 C38.5801634,4.16264876 38.6926237,3.88884591 38.9175443,3.66984132 C39.1424648,3.44560664 39.4637799,3.33346574 39.8824346,3.33346574 C40.3006168,3.33346574 40.6224044,3.44560664 40.847325,3.66984132 C41.0722456,3.89407601 41.1847059,4.17047035 41.1847059,4.49897723 C41.1847059,4.83276132 41.0722456,5.11174715 40.847325,5.33598184 C40.6224044,5.55498642 40.3006168,5.66453583 39.8824346,5.66453583 C39.4637799,5.66453583 39.1424648,5.55239493 38.9175443,5.32816025 C38.6926237,5.10392556 38.5801634,4.82493973 38.5801634,4.49115563 Z M43.569053,15.3642055 L43.569053,3.34910892 L45.8286542,3.34910892 L45.8286542,15.3642055 L43.569053,15.3642055 Z M47.2098367,11.1636335 L47.2098367,10.9132955 C47.2098367,9.58871351 47.6492823,8.51965261 48.5277012,7.7061599 C49.40612,6.88738996 50.5671071,6.47802855 52.0106624,6.47802855 C53.4594156,6.47802855 54.6227653,6.88738996 55.5016566,7.7061599 C56.3800754,8.51965261 56.8195211,9.58871351 56.8195211,10.9132955 L56.8195211,11.1636335 C56.8195211,12.4882155 56.3800754,13.5598679 55.5016566,14.3785907 C54.6227653,15.1921305 53.4617782,15.5988533 52.0186953,15.5988533 C50.5699422,15.5988533 49.40612,15.1921305 48.5277012,14.3785907 C47.6492823,13.5598679 47.2098367,12.4882155 47.2098367,11.1636335 Z M49.523778,10.8585443 L49.523778,11.2183847 C49.523778,11.9849478 49.7359405,12.6264126 50.1593204,13.1426848 C50.5831728,13.653727 51.2026494,13.909248 52.0186953,13.909248 C52.8290709,13.909248 53.4461849,13.653727 53.8700374,13.1426848 C54.2934173,12.6264126 54.5051072,11.9823563 54.5051072,11.2105631 L54.5051072,10.8585443 C54.5051072,10.091934 54.2934173,9.45315494 53.8700374,8.94206572 C53.4461849,8.42579351 52.8290709,8.16768096 52.0186953,8.16768096 C51.2026494,8.16768096 50.5831728,8.42579351 50.1593204,8.94206572 C49.7359405,9.45315494 49.523778,10.091934 49.523778,10.8585443 Z M58.8395535,15.3642055 L58.8395535,3.97488342 L67.2726576,3.97488342 L67.2726576,5.70364379 L61.1695606,5.70364379 L61.1695606,8.63702362 L66.4958311,8.63702362 L66.4958311,10.3579153 L61.1695606,10.3579153 L61.1695606,13.6433139 L67.3586566,13.6433139 L67.3586566,15.3642055 L58.8395535,15.3642055 Z M67.9237932,15.3642055 L71.5480386,10.3813801 L71.9085731,10.3813801 L74.5211484,6.71272344 L76.8350897,6.71272344 L73.3129091,11.5312484 L72.9835611,11.5312484 L70.2377345,15.3642055 L67.9237932,15.3642055 Z M68.0882309,6.71272344 L70.7712121,6.71272344 L73.289283,10.3657369 L73.3757546,10.3657369 L77,15.3642055 L74.308986,15.3642055 L71.673257,11.5703563 L71.5948183,11.5703563 L68.0882309,6.71272344 Z" id="形状" fill="#FFFFFF" fill-rule="nonzero"></path>
                        </g>
                    </g>
                </g>
            </g>
        </g>
    </g>
</svg>