<svg xmlns="http://www.w3.org/2000/svg" viewBox="0 0 40 40" fill="none">
  <path fill-rule="evenodd" clip-rule="evenodd"
        d="M40 20C40 31.0457 31.0457 40 20 40C8.95431 40 0 31.0457 0 20C0 8.95431 8.95431 0 20 0C31.0457 0 40 8.95431 40 20ZM31.5197 30.4535C28.674 33.5876 24.5668 35.5556 20 35.5556C15.4336 35.5556 11.3268 33.588 8.48105 30.4543C12.715 29.2402 16.6087 27.4563 20.0019 25.21C23.3943 27.4557 27.2869 29.2393 31.5197 30.4535ZM34.1141 26.5486C35.0391 24.5582 35.5556 22.3394 35.5556 20C35.5556 11.4089 28.5911 4.44444 20 4.44444C11.4089 4.44444 4.44444 11.4089 4.44444 20C4.44444 22.3397 4.96101 24.5588 5.88631 26.5494C7.82603 26.0646 9.68466 25.4517 11.4454 24.7253V19.9078C10.0677 20.4307 8.64715 20.872 7.19044 21.2255L6.14231 16.9064C10.8167 15.7721 15.056 13.6085 18.5822 10.6879L19.9997 9.5138L21.4172 10.6879C24.9434 13.6085 29.1827 15.7721 33.8571 16.9064L32.809 21.2255C31.4315 20.8912 30.0864 20.4785 28.7792 19.9924V24.8156C30.4733 25.5022 32.2565 26.0842 34.1141 26.5486ZM15.8899 22.534C16.8706 21.9631 17.8076 21.3533 18.6967 20.7081L20.0019 19.761L21.307 20.7081C22.2626 21.4016 23.2736 22.0542 24.3347 22.6615V17.9824C22.8162 17.1654 21.3675 16.2425 19.9997 15.2242C18.6996 16.1921 17.3266 17.0737 15.8899 17.8602V22.534Z"
        fill="#EABD3D"/>
</svg>
