<svg xmlns="http://www.w3.org/2000/svg" viewBox="0 0 25 19" fill="none">
  <path d="M12.8205 15.1076H6.64334H4.4289V11.0931V7.85559V4.0483V0.5H0V18.6818H12.8205V15.1076Z" fill="#000"/>
  <path
    d="M23.9072 10.9247C23.2674 10.1037 22.4231 9.58312 21.369 9.35779C22.3014 9.08066 23.0473 8.58856 23.6093 7.88149C24.1713 7.17442 24.4511 6.28346 24.4511 5.2138C24.4511 3.7634 23.9279 2.61603 22.8841 1.7691C21.8403 0.92217 20.3925 0.5 18.5459 0.5H7.97266V4.0483H17.6912C18.4164 4.0483 18.9732 4.21147 19.3617 4.5404C19.7502 4.86933 19.9445 5.34329 19.9445 5.96489C19.9445 6.58649 19.7502 7.05787 19.3617 7.37644C18.9732 7.69501 18.4164 7.85559 17.6912 7.85559H7.97266V11.0931H18.002C18.7453 11.0931 19.328 11.2744 19.7502 11.637C20.1724 11.9996 20.3848 12.4995 20.3848 13.1392C20.3848 13.7789 20.1827 14.2658 19.7761 14.6025C19.3695 14.9392 18.7971 15.1076 18.0538 15.1076H16.3642V18.6818H18.8308C20.7292 18.6818 22.2107 18.2363 23.2726 17.3479C24.3345 16.4596 24.8655 15.2552 24.8655 13.7349C24.8655 12.6808 24.5469 11.7458 23.9072 10.9247Z"
    fill="#000"/>
</svg>
