<svg xmlns="http://www.w3.org/2000/svg" viewBox="0 0 42 40">
  <g fill="none" fill-rule="evenodd">
    <path
      d="M22.931 35.017c.182 2.63-1.067 4.86-2.79 4.978-1.722.119-3.265-1.917-3.446-4.548-.182-2.63 1.067-4.86 2.79-4.978 1.722-.12 3.265 1.917 3.446 4.548M5.084 33.53c-1.253-.595-1.286-3.147-.075-5.7 1.21-2.553 3.207-4.141 4.46-3.546 1.252.595 1.286 3.147.075 5.7-1.21 2.553-3.207 4.14-4.46 3.546M.017 14.214c.214-.995 2.349-1.381 4.77-.862 2.421.52 4.211 1.747 3.998 2.743-.213.995-2.349 1.38-4.77.862-2.421-.52-4.211-1.748-3.998-2.743M11.275.032c.593-.287 2.004 1.405 3.151 3.778 1.147 2.375 1.596 4.531 1.004 4.818-.593.287-2.004-1.405-3.151-3.778C11.132 2.476 10.682.319 11.275.032m18.769 1.344c.442.366-.389 2.099-1.854 3.872-1.466 1.772-3.013 2.912-3.455 2.547-.441-.366.389-2.1 1.855-3.872 1.465-1.773 3.012-2.914 3.454-2.547m4.921 9.678a4.77 4.77 0 0 1 5.647 3.696 4.771 4.771 0 1 1-9.34 1.955 4.775 4.775 0 0 1 3.693-5.651m.242 15.124c2.08 1.722 2.585 4.546 1.13 6.307-1.457 1.76-4.324 1.792-6.403.07-2.08-1.723-2.585-4.546-1.13-6.308 1.457-1.76 4.324-1.791 6.403-.07"
      fill="#000"/>
  </g>
</svg>
