<svg xmlns="http://www.w3.org/2000/svg" width="31" height="37" viewBox="0 0 31 36" fill="none">
  <g transform="translate(-6 -9.4)">
    <path fill-rule="evenodd" clip-rule="evenodd"
          d="M27.0806 26.5333C30.1261 28.9214 35.7481 33.3305 29.3502 39.9012C22.4575 46.9801 10.0612 42.1344 7.54536 34.1475C5.02955 26.1605 10.4383 18.8266 14.5834 16.6357C14.2606 16.4526 13.6935 10.6974 14.5834 10.2504C16.5729 9.25116 21.7358 9.12795 26.8988 10.2504C32.0615 11.3729 39.2756 17.1838 35.6757 21.3664C32.7957 24.7124 26.2554 24.21 23.3452 23.5406L26.4271 26.0155C26.6251 26.1761 26.8453 26.3486 27.0806 26.5333ZM24.4937 36.0146C26.9333 32.4811 25.5398 29.1751 24.1028 27.4066C26.8251 28.1916 28.7358 30.7307 28.5576 33.6122C28.3506 36.9587 25.4052 39.4993 21.9787 39.2876C18.5522 39.0757 15.9422 36.191 16.1492 32.8448C16.236 31.4413 16.8047 30.1794 17.6886 29.2029C19.8355 27.3316 24.5342 33.7407 24.4937 36.0146Z"
          fill="#00FFB3"/>
    <mask id="mask0_910_2903" style="mask-type:alpha" maskUnits="userSpaceOnUse" x="6" y="11" width="31" height="33">
      <path
        d="M29.3497 39.9012C36.2423 32.8225 29.1842 28.2526 26.4266 26.0155L23.3447 23.5407C26.2549 24.2102 32.7952 24.7125 35.6752 21.3665C39.2751 17.184 32.6686 11.5544 26.2824 11.1595C19.896 10.7645 14.7538 13.8727 14.1842 14.9796C13.7284 15.8651 14.2601 16.4527 14.5829 16.6358C10.4378 18.8268 5.02907 26.1605 7.54488 34.1475C10.0607 42.1347 22.457 46.9801 29.3497 39.9012Z"
        fill="#AAE166"/>
    </mask>
    <g mask="url(#mask0_910_2903)">
      <path
        d="M15.9479 22.7569C10.3282 23.1109 8.93067 21.741 8.1759 21.4604C7.52599 21.9815 5.88854 24.0151 4.97368 25.1863C4.7742 25.2909 4.98457 26.4383 8.54011 26.3776C12.9845 26.3018 16.6739 23.5034 15.9479 22.7569Z"
        fill="#12CEAC"/>
      <path
        d="M12.1601 28.2251C7.81261 29.7591 6.3946 29.0317 5.73489 28.9881C5.34306 29.5308 4.52242 31.4462 4.07199 32.5434C3.93893 32.6676 4.3699 33.4934 7.15822 32.6469C10.6436 31.5887 12.9048 28.6296 12.1601 28.2251Z"
        fill="#12CEAC"/>
      <path
        d="M11.4653 34.0557C7.11779 35.59 5.69978 34.8622 5.04006 34.8187C4.64824 35.3614 3.8276 37.2771 3.37717 38.3739C3.2441 38.4985 3.67508 39.324 6.46339 38.4775C9.94876 37.4195 12.21 34.4601 11.4653 34.0557Z"
        fill="#12CEAC"/>
    </g>
    <path
      d="M30.957 23.0327C33.7978 24.6442 33.879 32.5134 31.6507 36.1281C28.8009 34.4833 29.0494 32.516 28.6841 30.0711C28.3095 27.5644 29.8679 24.4338 29.8679 24.4338L30.957 23.0327Z"
      fill="#00FFB3"/>
    <path
      d="M24.3589 26.0507C28.3637 27.1141 33.7021 23.6374 34.6768 22.2837C33.4683 22.9159 29.4777 24.7684 26.0882 23.3841C21.8516 21.6537 20.3542 24.9873 24.3589 26.0507Z"
      fill="white"/>
    <path
      d="M21.281 17.376C16.4143 17.7276 15.1297 16.8868 14.4774 16.6289C13.9127 17.1161 12.5763 17.6534 11.7796 18.7462C11.6065 18.8443 12.0298 19.0228 15.1082 18.9521C18.9563 18.8638 21.9065 18.0673 21.281 17.376Z"
      fill="#12CEAC"/>
    <path
      d="M26.5534 21.2918C28.7594 21.4282 30.6558 19.7924 30.789 17.638C30.9222 15.4837 29.2419 13.6266 27.0359 13.4902C24.8298 13.3538 22.9335 14.9896 22.8003 17.144C22.667 19.2983 24.3473 21.1553 26.5534 21.2918Z"
      fill="#63BB7A"/>
    <path
      d="M26.9259 20.6624C29.132 20.7988 31.0283 19.163 31.1616 17.0086C31.2948 14.8543 29.6145 12.9972 27.4084 12.8608C25.2024 12.7244 23.3061 14.3602 23.1728 16.5146C23.0396 18.6689 24.7199 20.5259 26.9259 20.6624Z"
      fill="#1A1A1A"/>
    <path
      d="M26.6278 17.3807C27.2712 17.4205 27.8243 16.9434 27.8632 16.315C27.9021 15.6867 27.412 15.145 26.7685 15.1053C26.1251 15.0655 25.572 15.5426 25.5332 16.1709C25.4943 16.7993 25.9844 17.3409 26.6278 17.3807Z"
      fill="white"/>
    <path
      d="M34.4766 20.1501C34.7523 20.1672 34.9894 19.9627 35.006 19.6934C35.0227 19.4241 34.8126 19.192 34.5369 19.1749C34.2611 19.1579 34.0241 19.3623 34.0074 19.6316C33.9908 19.9009 34.2008 20.1331 34.4766 20.1501Z"
      fill="#387D78"/>
    <path
      d="M16.5028 39.3634C17.0458 40.3739 15.7703 41.7611 13.8141 42.7599C11.8578 43.7587 9.8899 43.8576 9.41859 42.9804C8.9473 42.1033 10.1511 40.5825 12.1073 39.5836C14.0636 38.5848 15.9597 38.3526 16.5028 39.3634Z"
      fill="#7E5BF6"/>
    <path
      d="M18.7102 41.4786C19.2846 41.5868 19.445 42.5096 19.238 43.5712C19.0311 44.6331 18.4592 45.4173 17.9607 45.3234C17.4622 45.2292 17.2259 44.2922 17.4329 43.2306C17.6399 42.169 18.1358 41.3702 18.7102 41.4786Z"
      fill="#7E5BF6"/>
  </g>
</svg>
