<svg xmlns="http://www.w3.org/2000/svg" viewBox="0 0 28 28" fill="none">
  <g transform="translate(-3.8 -4.7)">
    <path
    d="M27.549 18C27.549 23.2738 23.2738 27.5491 18 27.5491C12.7262 27.5491 8.45093 23.2738 8.45093 18C8.45093 12.7262 12.7262 8.45093 18 8.45093C23.2738 8.45093 27.549 12.7262 27.549 18Z"
    stroke="url(#paint0_linear_290_98707)"/>
    <path
      d="M21.092 12.6319C21.0927 13.5336 20.9619 14.4305 20.7038 15.2945C20.503 15.9659 20.2258 16.612 19.8775 17.2201C19.747 17.452 19.6044 17.6779 19.4481 17.8961C19.4258 17.9304 19.4017 17.9648 19.3768 17.9983C19.2886 18.1237 19.1967 18.2465 19.1011 18.3667L19.0487 18.4329C19.0642 18.2886 19.077 18.1434 19.0848 17.9983C19.077 17.8531 19.0642 17.708 19.0487 17.5637C19.0487 17.5353 19.0427 17.507 19.0393 17.4778C19.0212 17.324 18.9989 17.172 18.9731 17.02C18.8211 16.9942 18.6691 16.9719 18.5153 16.9538L18.4294 16.9444C18.2851 16.9289 18.14 16.9161 17.9948 16.9083C17.8497 16.9161 17.7045 16.9289 17.5602 16.9444L17.4744 16.9538C17.3206 16.9719 17.1686 16.9942 17.0166 17.02C16.9908 17.172 16.9685 17.324 16.9504 17.4778C16.9504 17.5061 16.9444 17.5345 16.941 17.5637C16.9255 17.708 16.9126 17.8531 16.9049 17.9983C16.9126 18.1434 16.9255 18.2886 16.941 18.4329L16.8886 18.3667C16.7935 18.2465 16.7016 18.1237 16.6129 17.9983C16.588 17.9648 16.5639 17.9304 16.5416 17.8961C16.3896 17.6779 16.247 17.452 16.1121 17.2201C15.7639 16.612 15.4867 15.9659 15.2859 15.2945C15.0278 14.4305 14.897 13.5336 14.8977 12.6319C14.8977 11.8993 14.8676 11.3556 14.9836 10.7423C15.0841 10.2038 15.2945 9.60944 15.7334 8.78404C16.685 7.01043 18 5.43779 18 4C18 5.43779 19.315 7.01043 20.258 8.78147C20.6969 9.60686 20.9074 10.2012 21.0078 10.7397C21.1221 11.3556 21.092 11.9018 21.092 12.6319Z"
      fill="url(#paint1_linear_290_98707)"/>
    <path
      d="M21.0063 25.2601C20.9058 25.7986 20.6954 26.393 20.2565 27.2184C19.3151 28.9937 18.0002 30.5621 18.0002 31.9999C18.0002 30.5621 16.6852 28.9894 15.7421 27.2184C15.3032 26.393 15.0928 25.7986 14.9923 25.2601C14.8781 24.6443 14.9064 24.1006 14.9064 23.3706C14.9057 22.4689 15.0365 21.5719 15.2947 20.708C15.4954 20.0366 15.7727 19.3905 16.1209 18.7823C16.2515 18.5504 16.394 18.3245 16.5504 18.1064C16.5727 18.072 16.5967 18.0377 16.6216 18.0042C16.7098 17.8788 16.8017 17.756 16.8974 17.6357L16.9497 17.5696C16.9343 17.7139 16.9214 17.859 16.9137 18.0042C16.9214 18.1493 16.9343 18.2945 16.9497 18.4388C16.9497 18.4671 16.9558 18.4955 16.9592 18.5247C16.9772 18.6784 16.9996 18.8304 17.0253 18.9825C17.1774 19.0082 17.3294 19.0306 17.4831 19.0486L17.569 19.058C17.7133 19.0735 17.8585 19.0864 18.0036 19.0941C18.1488 19.0864 18.2939 19.0735 18.4382 19.058L18.5241 19.0486C18.6778 19.0306 18.8299 19.0082 18.9819 18.9825C19.0077 18.8304 19.03 18.6784 19.048 18.5247C19.048 18.4963 19.054 18.468 19.0575 18.4388C19.0729 18.2945 19.0858 18.1493 19.0935 18.0042C19.0858 17.859 19.0729 17.7139 19.0575 17.5696L19.1099 17.6357C19.2049 17.756 19.2968 17.8788 19.3856 18.0042C19.4105 18.0377 19.4345 18.072 19.4569 18.1064C19.6089 18.3245 19.7515 18.5504 19.8863 18.7823C20.2346 19.3905 20.5118 20.0366 20.7126 20.708C20.9707 21.5719 21.1015 22.4689 21.1008 23.3706C21.0922 24.098 21.1223 24.6443 21.0063 25.2601Z"
      fill="url(#paint2_linear_290_98707)"/>
    <path
      d="M31.9999 17.9999C30.5621 17.9999 28.9894 19.3148 27.2184 20.2579C26.393 20.6968 25.7986 20.9072 25.2601 21.0077C24.6443 21.1219 24.1006 21.0936 23.3705 21.0936C22.4689 21.0943 21.5719 20.9635 20.708 20.7054C20.0366 20.5046 19.3905 20.2274 18.7823 19.8791C18.5504 19.7486 18.3245 19.606 18.1064 19.4497C18.072 19.4273 18.0377 19.4033 18.0042 19.3784C17.8788 19.2902 17.756 19.1983 17.6357 19.1027L17.5696 19.0503C17.7139 19.0658 17.859 19.0786 18.0042 19.0864C18.1493 19.0786 18.2945 19.0658 18.4388 19.0503L18.5247 19.0408C18.6784 19.0228 18.8304 19.0005 18.9825 18.9747C19.0082 18.8227 19.0306 18.6707 19.0486 18.5169C19.0486 18.4886 19.0546 18.4602 19.058 18.431C19.0735 18.2867 19.0864 18.1416 19.0941 17.9964C19.0864 17.8513 19.0735 17.7061 19.058 17.5618C19.058 17.5335 19.052 17.5051 19.0486 17.4759C19.0306 17.3222 19.0082 17.1702 18.9825 17.0182C18.8304 16.9924 18.6784 16.9701 18.5247 16.952L18.4388 16.9426C18.2945 16.9271 18.1493 16.9142 18.0042 16.9065C17.859 16.9142 17.7139 16.9271 17.5696 16.9426L17.6357 16.8902C17.756 16.7951 17.8788 16.7032 18.0042 16.6145C18.0377 16.5896 18.072 16.5655 18.1064 16.5432C18.3245 16.3912 18.5504 16.2486 18.7823 16.1137C19.3905 15.7655 20.0366 15.4882 20.708 15.2875C21.5719 15.0294 22.4689 14.8986 23.3705 14.8993C24.1032 14.8993 24.6469 14.8692 25.2601 14.9851C25.7986 15.0856 26.393 15.2961 27.2184 15.735C28.9937 16.6849 30.5621 17.9999 31.9999 17.9999Z"
      fill="url(#paint3_linear_290_98707)"/>
    <path
      d="M18 19.089C18.1451 19.0813 18.2903 19.0684 18.4346 19.0529L18.3684 19.1053C18.2482 19.2004 18.1254 19.2923 18 19.381C17.9665 19.4059 17.9321 19.43 17.8978 19.4523C17.6796 19.6043 17.4537 19.7469 17.2218 19.8818C16.6137 20.23 15.9676 20.5073 15.2962 20.708C14.4322 20.9662 13.5353 21.0969 12.6336 21.0962C11.901 21.0962 11.3573 21.1263 10.744 21.0104C10.2055 20.9099 9.61116 20.6994 8.78576 20.2605C7.01042 19.3149 5.43779 17.9999 4 17.9999C5.43779 17.9999 7.01042 16.685 8.78146 15.7419C9.60686 15.303 10.2012 15.0926 10.7397 14.9921C11.3556 14.8779 11.8992 14.9062 12.6293 14.9062C13.531 14.9055 14.4279 15.0363 15.2919 15.2944C15.9633 15.4952 16.6094 15.7724 17.2175 16.1207C17.4494 16.2512 17.6753 16.3938 17.8935 16.5501C17.9278 16.5724 17.9622 16.5965 17.9957 16.6214C18.1211 16.7096 18.2439 16.8015 18.3641 16.8971L18.4303 16.9495C18.286 16.934 18.1408 16.9212 17.9957 16.9134C17.8505 16.9212 17.7054 16.934 17.5611 16.9495L17.4752 16.959C17.3214 16.977 17.1694 16.9993 17.0174 17.0251C16.9916 17.1771 16.9693 17.3291 16.9513 17.4829C16.9513 17.5112 16.9453 17.5396 16.9418 17.5688C16.9264 17.7131 16.9135 17.8582 16.9057 18.0034C16.9135 18.1485 16.9264 18.2937 16.9418 18.438C16.9418 18.4663 16.9478 18.4947 16.9513 18.5239C16.9693 18.6776 16.9916 18.8296 17.0174 18.9816C17.1694 19.0074 17.3214 19.0297 17.4752 19.0478L17.5611 19.0572C17.7097 19.0684 17.8548 19.0813 18 19.089Z"
      fill="url(#paint4_linear_290_98707)"/>
    <path
      d="M27.8995 8.10034C26.8826 9.11727 26.6971 11.1589 26.1147 13.0819C25.8425 13.9752 25.571 14.5421 25.2558 14.9955C24.902 15.5109 24.4966 15.8759 23.9778 16.3938C23.3411 17.0312 22.6149 17.5723 21.822 18C21.2059 18.3333 20.5534 18.5944 19.8774 18.7781C19.6198 18.8494 19.3621 18.9078 19.0993 18.9551C19.0589 18.9636 19.0185 18.9705 18.9773 18.9774C19.0031 18.8254 19.0254 18.6733 19.0434 18.5196C19.0434 18.4912 19.0495 18.4629 19.0529 18.4337C19.0684 18.2894 19.0812 18.1443 19.089 17.9991C19.0812 17.8539 19.0684 17.7088 19.0529 17.5645C19.0529 17.5362 19.0469 17.5078 19.0434 17.4786C19.0254 17.3249 19.0031 17.1728 18.9773 17.0208C18.8253 16.9951 18.6733 16.9727 18.5195 16.9547L18.4336 16.9452C18.2893 16.9298 18.1442 16.9169 17.999 16.9092C17.8539 16.9169 17.7087 16.9298 17.5644 16.9452L17.4785 16.9547C17.3248 16.9727 17.1728 16.9951 17.0208 17.0208C17.0276 16.9796 17.0345 16.9349 17.0431 16.8989C17.0903 16.6412 17.1487 16.3775 17.22 16.1207C17.4044 15.4453 17.6661 14.7933 17.9999 14.1779C18.4282 13.3832 18.9705 12.6555 19.6095 12.0178C20.1248 11.5024 20.4898 11.0936 21.0077 10.7397C21.4595 10.4288 22.0281 10.1574 22.9214 9.88083C24.841 9.29936 26.8826 9.11727 27.8995 8.10034Z"
      fill="url(#paint5_linear_290_98707)"/>
    <path
      d="M18.9775 18.9773C18.9706 19.0185 18.9638 19.0632 18.9552 19.0993C18.9079 19.3569 18.8495 19.6206 18.7783 19.8774C18.5945 20.5534 18.3334 21.2059 18.0001 21.822C17.5717 22.6166 17.0295 23.3444 16.3905 23.9821C15.8752 24.4974 15.5102 24.9063 14.9922 25.2601C14.5405 25.571 13.9719 25.8424 13.0786 26.119C11.159 26.7048 9.11741 26.8869 8.09705 27.9038C9.11398 26.8869 9.2995 24.8453 9.88183 22.9222C10.1541 22.029 10.4255 21.4621 10.7407 21.0086C11.0946 20.4933 11.5 20.1282 12.0188 19.6103C12.6562 18.9711 13.3836 18.4286 14.178 17.9999C14.7941 17.6666 15.4466 17.4054 16.1226 17.2217C16.3802 17.1504 16.6379 17.092 16.9007 17.0448C16.9411 17.0362 16.9814 17.0293 17.0227 17.0225C16.9969 17.1745 16.9746 17.3265 16.9565 17.4803C16.9565 17.5086 16.9505 17.5369 16.9471 17.5661C16.9316 17.7104 16.9187 17.8556 16.911 18.0007C16.9187 18.1459 16.9316 18.291 16.9471 18.4353C16.9471 18.4637 16.9531 18.492 16.9565 18.5212C16.9746 18.675 16.9969 18.827 17.0227 18.979C17.1747 19.0048 17.3267 19.0271 17.4805 19.0452L17.5664 19.0546C17.7106 19.0701 17.8558 19.0829 18.001 19.0907C18.1461 19.0829 18.2913 19.0701 18.4356 19.0546L18.5214 19.0452C18.6735 19.0254 18.8255 19.0031 18.9775 18.9773Z"
      fill="url(#paint6_linear_290_98707)"/>
    <path
      d="M27.8995 27.8995C26.8826 26.8826 24.841 26.6971 22.9179 26.1147C22.0247 25.8425 21.4578 25.571 21.0043 25.2558C20.489 24.902 20.1239 24.4966 19.606 23.9778C18.9686 23.3412 18.4275 22.6149 17.9999 21.822C17.6666 21.2059 17.4054 20.5534 17.2217 19.8774C17.1504 19.6198 17.092 19.3621 17.0448 19.0993C17.0362 19.0589 17.0293 19.0185 17.0225 18.9773C17.1745 19.0031 17.3265 19.0254 17.4803 19.0434L17.5661 19.0529C17.7104 19.0684 17.8556 19.0812 18.0007 19.089C18.1459 19.0812 18.291 19.0684 18.4353 19.0529L18.5212 19.0434C18.675 19.0254 18.827 19.0031 18.979 18.9773C19.0048 18.8253 19.0271 18.6733 19.0452 18.5195C19.0452 18.4912 19.0512 18.4628 19.0546 18.4336C19.0701 18.2893 19.0829 18.1442 19.0907 17.999C19.0829 17.8539 19.0701 17.7087 19.0546 17.5644C19.0546 17.5361 19.0486 17.5077 19.0452 17.4785C19.0271 17.3248 19.0048 17.1728 18.979 17.0208C19.0202 17.0276 19.0649 17.0345 19.101 17.0431C19.3587 17.0903 19.6223 17.1487 19.8791 17.22C20.5546 17.4044 21.2065 17.6661 21.822 17.9999C22.6166 18.4282 23.3444 18.9705 23.9821 19.6095C24.4974 20.1248 24.9062 20.4898 25.2601 21.0077C25.571 21.4595 25.8424 22.0281 26.119 22.9214C26.7005 24.841 26.8826 26.8826 27.8995 27.8995Z"
      fill="url(#paint7_linear_290_98707)"/>
    <path
      d="M18.9775 17.0226C18.8255 16.9968 18.6735 16.9745 18.5197 16.9564L18.4338 16.947C18.2895 16.9315 18.1444 16.9186 17.9992 16.9109C17.8541 16.9186 17.7089 16.9315 17.5646 16.947L17.4787 16.9564C17.325 16.9745 17.173 16.9968 17.021 17.0226C16.9952 17.1746 16.9729 17.3266 16.9548 17.4803C16.9548 17.5087 16.9488 17.537 16.9454 17.5662C16.9299 17.7105 16.917 17.8557 16.9093 18.0008C16.917 18.146 16.9299 18.2911 16.9454 18.4354C16.9454 18.4638 16.9514 18.4921 16.9548 18.5213C16.9729 18.6751 16.9952 18.8271 17.021 18.9791C16.9797 18.9722 16.9351 18.9654 16.899 18.9568C16.6413 18.9095 16.3776 18.8511 16.1208 18.7799C15.4454 18.5955 14.7935 18.3338 14.178 18C13.3834 17.5716 12.6556 17.0294 12.0179 16.3904C11.5026 15.8751 11.0937 15.51 10.7399 14.9921C10.4289 14.5403 10.1575 13.9718 9.88097 13.0785C9.29521 11.1589 9.11312 9.11729 8.09619 8.09692C9.11312 9.11385 11.1547 9.29938 13.0778 9.88171C13.971 10.154 14.5379 10.4254 14.9914 10.7406C15.5067 11.0945 15.8718 11.4999 16.3897 12.0186C17.0289 12.656 17.5714 13.3835 18.0001 14.1779C18.3334 14.794 18.5945 15.4465 18.7783 16.1224C18.8495 16.3801 18.9079 16.6378 18.9552 16.9006C18.9638 16.941 18.9706 16.9813 18.9775 17.0226Z"
      fill="url(#paint8_linear_290_98707)"/>
    <path
      d="M20.842 12.6321V12.6319C20.842 12.4966 20.843 12.369 20.8439 12.2473C20.8479 11.6969 20.8511 11.2658 20.7621 10.7856C20.6676 10.2792 20.4682 9.7093 20.0374 8.89897C19.8053 8.46326 19.5497 8.03833 19.294 7.61971C19.2575 7.56002 19.2211 7.50042 19.1846 7.44091C18.9668 7.0851 18.7512 6.73283 18.5575 6.3883C18.3404 6.00229 18.1444 5.61547 17.9999 5.22973C17.8553 5.61558 17.659 6.00254 17.4414 6.38881C17.2447 6.73781 17.0255 7.09471 16.8039 7.45535C16.77 7.51054 16.7361 7.56581 16.7021 7.62116C16.4453 8.04009 16.188 8.46547 15.9539 8.90183C15.5231 9.71201 15.3238 10.2818 15.2293 10.7882L15.2292 10.7888C15.1387 11.2676 15.1418 11.697 15.1459 12.2497C15.1467 12.3706 15.1477 12.4974 15.1477 12.6319V12.6321C15.147 13.5095 15.2743 14.3822 15.5254 15.2229C15.7206 15.8757 15.9901 16.5038 16.3287 17.0951C16.4404 17.2873 16.5573 17.4747 16.6803 17.6564C16.6841 17.6164 16.6882 17.5766 16.6924 17.537L16.6927 17.5345L16.6927 17.5345C16.694 17.5237 16.6954 17.5137 16.6965 17.506L16.6993 17.4869C16.7001 17.4804 16.7004 17.4775 16.7004 17.4768V17.4632L16.7021 17.4486C16.7207 17.2901 16.7437 17.1338 16.7701 16.9782L16.7997 16.8032L16.9748 16.7735C17.1304 16.7471 17.2867 16.7241 17.4452 16.7056L17.447 16.7053L17.5329 16.6959L17.5336 16.6958C17.6808 16.6801 17.8306 16.6667 17.9815 16.6587L17.9948 16.658L18.0081 16.6587C18.1591 16.6667 18.3089 16.6801 18.4561 16.6958L18.4568 16.6959L18.5427 16.7053L18.5445 16.7055C18.703 16.7241 18.8593 16.7471 19.0149 16.7735L19.1899 16.8032L19.2196 16.9782C19.246 17.1338 19.269 17.2901 19.2876 17.4486M20.842 12.6321L19.0393 17.4778M20.842 12.6321C20.8427 13.5095 20.7154 14.3822 20.4643 15.2229L20.842 12.6321ZM19.2876 17.4486L19.0393 17.4778M19.2876 17.4486C19.2876 17.4486 19.2875 17.4486 19.2875 17.4486L19.0393 17.4778M19.2876 17.4486C19.2884 17.4555 19.2889 17.4589 19.2896 17.464C19.2904 17.4688 19.2913 17.4752 19.293 17.4875C19.295 17.5024 19.2976 17.5235 19.2984 17.5478M19.0393 17.4778C19.0403 17.4868 19.0416 17.4958 19.0429 17.5047C19.0458 17.5246 19.0487 17.5441 19.0487 17.5637M19.2984 17.5478C19.298 17.5442 19.2977 17.5406 19.2973 17.537L19.0487 17.5637M19.2984 17.5478C19.2986 17.5529 19.2987 17.5582 19.2987 17.5637H19.0487M19.2984 17.5478L19.0487 17.5637M14.9836 10.7423C14.8881 11.2471 14.8916 11.7047 14.8958 12.2593C14.8967 12.3786 14.8977 12.5023 14.8977 12.6319C14.897 13.5336 15.0278 14.4305 15.2859 15.2945L14.9836 10.7423ZM14.9836 10.7423C15.0841 10.2038 15.2945 9.60944 15.7334 8.78404L14.9836 10.7423ZM18 4C18 4.27211 17.9529 4.54905 17.8701 4.83127L18 4ZM18 4C18 4.27212 18.0471 4.54908 18.1299 4.83129L18 4ZM19.3315 18.0619C19.2573 18.1653 19.1805 18.2669 19.1011 18.3667L19.0487 18.4329C19.0523 18.3997 19.0557 18.3665 19.0589 18.3333C19.0589 18.3333 19.0589 18.3332 19.0589 18.3332C19.0698 18.2218 19.0788 18.11 19.0848 17.9983C19.0844 17.9915 19.084 17.9847 19.0837 17.9779C19.1136 17.937 19.1432 17.8959 19.1723 17.8545L19.1761 17.849L19.1762 17.8491C19.1983 17.8194 19.2193 17.7893 19.2385 17.7598L19.2447 17.7503L19.2449 17.7504C19.2667 17.7199 19.2883 17.6893 19.3096 17.6584C19.3143 17.7074 19.3187 17.7567 19.3225 17.8061C19.3228 17.809 19.323 17.812 19.3232 17.8149C19.3271 17.8651 19.3305 17.9155 19.3334 17.966C19.3334 17.9666 19.3335 17.9672 19.3335 17.9678C19.3338 17.9735 19.3341 17.9792 19.3344 17.985L19.3351 17.9983L19.3344 18.0116C19.3335 18.0284 19.3326 18.0452 19.3315 18.0619Z"
      stroke="#262524" stroke-width="0.5"/>
    <path
      d="M20.7605 25.2143L20.7606 25.2139C20.8477 24.7515 20.8481 24.3362 20.8486 23.8162C20.8488 23.6758 20.8489 23.5277 20.8508 23.369C20.8513 22.4921 20.7241 21.6198 20.473 20.7796C20.2778 20.1268 20.0083 19.4986 19.6698 18.9073C19.558 18.7152 19.4412 18.5278 19.3182 18.3461C19.3144 18.386 19.3103 18.4258 19.3061 18.4654L19.3058 18.468L19.3058 18.468C19.3045 18.4788 19.3031 18.4888 19.302 18.4965L19.2992 18.5156C19.2983 18.522 19.2981 18.525 19.298 18.5257V18.5393L19.2963 18.5538C19.2777 18.7123 19.2548 18.8686 19.2284 19.0242L19.1987 19.1993L19.0237 19.2289C18.868 19.2553 18.7118 19.2783 18.5532 19.2969L18.5514 19.2971L18.5514 19.2971L18.4655 19.3065L18.4648 19.3066C18.3176 19.3224 18.1678 19.3357 18.0169 19.3438L18.0036 19.3445L17.9903 19.3438C17.8394 19.3357 17.6896 19.3224 17.5424 19.3066L17.5417 19.3065L17.4558 19.2971L17.454 19.2969L17.454 19.2969C17.2955 19.2783 17.1392 19.2553 16.9836 19.2289L16.8085 19.1993L16.7788 19.0242C16.7525 18.8686 16.7295 18.7124 16.7109 18.5539C16.7109 18.5539 16.7109 18.5538 16.7109 18.5538L20.7605 25.2143ZM20.7605 25.2143C20.666 25.7207 20.4667 26.2906 20.0358 27.101L20.0356 27.1013C19.8041 27.538 19.5488 27.9634 19.2934 28.3821C19.2546 28.4457 19.2158 28.5092 19.177 28.5725C18.9619 28.9244 18.7489 29.2727 18.5574 29.6132C18.3406 29.9987 18.1447 30.385 18.0003 30.7702M20.7605 25.2143L18.0003 30.7702M18.0003 30.7702C17.8558 30.3845 17.6598 29.9976 17.4427 29.6116C17.249 29.267 17.0333 28.9148 16.8155 28.5589C16.7791 28.4994 16.7426 28.4398 16.7062 28.3802C16.4505 27.9616 16.1949 27.5367 15.9629 27.101L18.0003 30.7702ZM16.6888 18.344C16.5632 18.5257 16.4469 18.713 16.3388 18.905L16.3379 18.9066L16.3379 18.9066C15.9991 19.4981 15.7295 20.1265 15.5342 20.7795L16.6888 18.344ZM16.6888 18.344C16.6924 18.381 16.6961 18.4179 16.7 18.4547L16.6888 18.344ZM14.9064 23.3706C14.9057 22.4689 15.0365 21.5719 15.2947 20.708L15.5342 20.7796C15.283 21.6202 15.1558 22.493 15.1564 23.3704L15.1564 23.3706C15.1564 23.5002 15.1556 23.6227 15.1548 23.7398C15.1511 24.2964 15.1482 24.7297 15.2381 25.2144C15.3326 25.7208 15.532 26.2906 15.9628 27.1009L14.9064 23.3706Z"
      stroke="#262524" stroke-width="0.5"/>
    <path
      d="M23.3705 21.0936C23.4958 21.0936 23.6156 21.0944 23.7313 21.0952C24.2893 21.0991 24.75 21.1023 25.2601 21.0077C25.7986 20.9072 26.393 20.6968 27.2184 20.2579C27.7247 19.9883 28.2148 19.6883 28.6901 19.3973C29.5629 18.8631 30.386 18.3592 31.1687 18.1297L23.3705 21.0936ZM23.3705 21.0936C22.4689 21.0943 21.5719 20.9635 20.708 20.7054L23.3705 21.0936ZM30.7704 17.9997C30.3846 18.1442 29.9977 18.3402 29.6116 18.5573C29.267 18.7511 28.9148 18.9667 28.559 19.1845C28.4994 19.2209 28.4398 19.2574 28.3802 19.2939C27.9616 19.5495 27.5367 19.8052 27.101 20.0372C26.2906 20.4681 25.7207 20.6675 25.2143 20.762C24.7296 20.8518 24.2964 20.8489 23.7398 20.8452C23.6227 20.8444 23.5002 20.8436 23.3705 20.8436H23.3704C22.493 20.8443 21.6202 20.717 20.7796 20.4659C20.1265 20.2706 19.4981 20.0009 18.9066 19.6622L18.905 19.6613C18.713 19.5532 18.5257 19.4368 18.344 19.3112C18.3846 19.3073 18.4251 19.3032 18.4654 19.2989L18.4661 19.2988L18.552 19.2893L18.552 19.2894L18.5538 19.2891C18.7123 19.2705 18.8686 19.2476 19.0242 19.2212L19.1993 19.1915L19.2289 19.0165C19.2553 18.8609 19.2783 18.7046 19.2969 18.5461L19.2986 18.5315V18.5179C19.2987 18.5172 19.2989 18.5143 19.2998 18.5078L19.3025 18.4887C19.3036 18.481 19.3051 18.471 19.3063 18.4602L19.3063 18.4602L19.3066 18.4577C19.3224 18.3105 19.3357 18.1606 19.3438 18.0097L19.3445 17.9964L19.3438 17.9831C19.3359 17.8359 19.323 17.6897 19.3078 17.5459C19.3069 17.5216 19.3044 17.5005 19.3023 17.4857C19.3007 17.4733 19.2997 17.467 19.299 17.4622L30.7704 17.9997ZM30.7704 17.9997C30.385 17.8551 29.9987 17.6589 29.6129 17.4414C29.2672 17.2465 28.9136 17.0293 28.5561 16.8098C28.4981 16.7742 28.4399 16.7385 28.3817 16.7028C27.9629 16.4461 27.5375 16.1892 27.1007 15.9555C26.2905 15.5247 25.7206 15.3254 25.2143 15.2309L25.2137 15.2308C24.7349 15.1403 24.3055 15.1434 23.7527 15.1474C23.6318 15.1483 23.505 15.1493 23.3705 15.1493H23.3704C22.493 15.1486 21.6202 15.2758 20.7796 15.527L30.7704 17.9997ZM19.2969 17.4467C19.2783 17.2882 19.2553 17.132 19.2289 16.9764L19.1993 16.8013L19.0242 16.7717C18.8686 16.7453 18.7123 16.7223 18.5538 16.7037L18.5538 16.7037L18.552 16.7035L18.4661 16.6941L18.4661 16.6941L18.4654 16.694C18.4258 16.6897 18.386 16.6857 18.3461 16.6818C18.5278 16.5589 18.7151 16.442 18.9073 16.3303C19.4986 15.9917 20.1268 15.7222 20.7795 15.527L19.2969 17.4467Z"
      stroke="#262524" stroke-width="0.5"/>
    <path
      d="M12.6293 14.9062C12.504 14.9062 12.3842 14.9054 12.2686 14.9046C11.7105 14.9007 11.2499 14.8975 10.7397 14.9921M12.6293 14.9062L18 19.3394L18.0133 19.3387C18.03 19.3378 18.0466 19.3368 18.0633 19.3358C18.0423 19.351 18.0212 19.366 18 19.381C17.9665 19.4059 17.9321 19.43 17.8978 19.4523C17.6796 19.6043 17.4537 19.7469 17.2218 19.8818M12.6293 14.9062C13.531 14.9055 14.4279 15.0363 15.2919 15.2944L12.6293 14.9062ZM10.7397 14.9921C10.2012 15.0926 9.60686 15.303 8.78146 15.7419M10.7397 14.9921L10.7853 15.2379C10.7854 15.2379 10.7854 15.2379 10.7855 15.2379M10.7397 14.9921L10.7856 15.2378C10.7856 15.2378 10.7855 15.2379 10.7855 15.2379M8.78146 15.7419C8.27517 16.0115 7.7851 16.3115 7.30975 16.6025C6.43703 17.1367 5.61396 17.6405 4.83135 17.87C4.96401 17.9064 5.09688 17.9501 5.22989 17.9999M8.78146 15.7419L8.89884 15.9626M8.78146 15.7419L8.89897 15.9626C8.89892 15.9626 8.89888 15.9626 8.89884 15.9626M5.22989 17.9999C5.09689 18.0498 4.96401 18.0935 4.83135 18.1298C5.61402 18.3594 6.43737 18.8634 7.31122 19.3983C7.78722 19.6897 8.2782 19.9902 8.78576 20.2605M5.22989 17.9999C5.61567 18.1445 6.0026 18.3405 6.38884 18.5577C6.73357 18.7516 7.08614 18.9674 7.44238 19.1855C7.50199 19.2219 7.56171 19.2585 7.62152 19.295C8.04074 19.5511 8.46648 19.8072 8.90329 20.0399M5.22989 17.9999C5.61558 17.8554 6.00234 17.6595 6.3883 17.4425C6.73283 17.2487 7.0851 17.0331 7.4409 16.8153C7.50041 16.7789 7.56002 16.7424 7.61971 16.7059C8.03829 16.4503 8.46317 16.1946 8.89884 15.9626M8.78576 20.2605C9.61116 20.6994 10.2055 20.9099 10.744 21.0104C11.2488 21.1058 11.7064 21.1023 12.2611 21.0981C12.3803 21.0972 12.504 21.0962 12.6336 21.0962C13.5353 21.0969 14.4322 20.9662 15.2962 20.708M8.78576 20.2605L8.90329 20.0399M8.78576 20.2605L8.90313 20.0398C8.90318 20.0398 8.90324 20.0399 8.90329 20.0399M15.2962 20.708C15.9676 20.5073 16.6137 20.23 17.2218 19.8818M15.2962 20.708L15.2246 20.4685M15.2962 20.708L15.2246 20.4685M17.2218 19.8818L17.0976 19.6648C17.0973 19.665 17.0971 19.6651 17.0968 19.6653M17.2218 19.8818L17.0961 19.6657C17.0964 19.6655 17.0966 19.6654 17.0968 19.6653M17.0968 19.6653C16.5056 20.0038 15.8774 20.2733 15.2246 20.4685M17.0968 19.6653C17.2881 19.554 17.4747 19.4377 17.6556 19.3153C17.6175 19.3123 17.5797 19.3093 17.5423 19.3065L17.5337 19.3059L17.5337 19.3057L17.4479 19.2963L17.4461 19.2961C17.2875 19.2775 17.1313 19.2545 16.9756 19.2281L16.8006 19.1985L16.7709 19.0234C16.7445 18.8678 16.7216 18.7116 16.703 18.5531C16.703 18.553 16.703 18.553 16.703 18.553L15.2246 20.4685M15.2246 20.4685L15.2246 20.4685M15.2246 20.4685C14.3839 20.7197 13.5111 20.8469 12.6338 20.8462H12.6336C12.4991 20.8462 12.3723 20.8472 12.2515 20.8481C11.6987 20.8521 11.2693 20.8552 10.7905 20.7647L10.7899 20.7646C10.2835 20.6701 9.71361 20.4708 8.90329 20.0399M15.2246 20.4685L16.6921 18.4539C16.6768 18.3101 16.6639 18.1639 16.6561 18.0167L16.6554 18.0034L16.6561 17.9901C16.6641 17.8392 16.6775 17.6893 16.6932 17.5421L16.6935 17.5396C16.6948 17.5288 16.6962 17.5188 16.6973 17.5111L16.7001 17.492C16.701 17.4855 16.7012 17.4826 16.7013 17.4819V17.4683L16.703 17.4537C16.7216 17.2952 16.7445 17.1389 16.7709 16.9833L16.8006 16.8083L16.9756 16.7786C17.1313 16.7522 17.2875 16.7293 17.4461 16.7107L17.4479 16.7104L17.5337 16.701L17.5344 16.7009C17.5747 16.6966 17.6152 16.6925 17.6559 16.6886C17.4742 16.563 17.2869 16.4466 17.0949 16.3385L17.0933 16.3376C16.5018 15.9989 15.8734 15.7292 15.2203 15.534C14.3797 15.2828 13.5069 15.1555 12.6295 15.1562L12.6293 15.1562C12.4997 15.1562 12.3771 15.1554 12.2601 15.1546C11.7034 15.1509 11.2702 15.148 10.7855 15.2379M8.89884 15.9626C9.70917 15.5317 10.2791 15.3324 10.7855 15.2379"
      stroke="#262524" stroke-width="0.5"/>
    <path
      d="M19.2771 18.6661C19.4563 18.629 19.6335 18.5862 19.8108 18.5372L19.8119 18.5369C20.4693 18.3582 21.1038 18.1043 21.703 17.7801L21.7033 17.7799C22.4748 17.3638 23.1815 16.8374 23.8009 16.2172L23.8012 16.2169C23.8924 16.1258 23.9793 16.0402 24.0623 15.9584C24.4613 15.5652 24.7708 15.2603 25.0497 14.854L25.0505 14.8529C25.3466 14.4269 25.6083 13.8859 25.8755 13.0093C26.0188 12.536 26.1381 12.054 26.2532 11.5767C26.2683 11.514 26.2834 11.4514 26.2984 11.3889C26.3973 10.9773 26.4951 10.5698 26.6034 10.1838C26.7231 9.75725 26.8583 9.34522 27.0291 8.97036C26.6543 9.14074 26.2425 9.27549 25.8163 9.39465C25.4324 9.50197 25.0273 9.59899 24.6181 9.69697C24.5536 9.71241 24.4891 9.72787 24.4245 9.7434C23.9478 9.858 23.4667 9.97689 22.9946 10.1199C22.1175 10.3915 21.5741 10.6534 21.1495 10.9457L21.1488 10.9461C20.746 11.2214 20.4439 11.5281 20.0592 11.9189C19.973 12.0063 19.8827 12.098 19.7862 12.1945L19.7861 12.1947C19.1644 12.8152 18.6367 13.5233 18.22 14.2965L18.2197 14.2971C17.895 14.8956 17.6405 15.5296 17.4612 16.1865L17.4609 16.1876C17.4122 16.3629 17.3696 16.5422 17.3325 16.7209C17.3714 16.7158 17.4103 16.711 17.4494 16.7064L17.4512 16.7062L17.5371 16.6967L17.5378 16.6967C17.685 16.6809 17.8348 16.6676 17.9857 16.6595L17.999 16.6588L18.0123 16.6595C18.1632 16.6676 18.3131 16.6809 18.4603 16.6967L18.461 16.6967L18.5469 16.7062L18.5487 16.7064C18.7072 16.725 18.8635 16.748 19.0191 16.7743L19.1941 16.804L19.2238 16.979C19.2502 17.1347 19.2731 17.291 19.2917 17.4495M19.2771 18.6661L19.0434 17.4786M19.2771 18.6661C19.2823 18.6271 19.2871 18.588 19.2917 18.5487L19.2934 18.5342V18.5206M19.2771 18.6661L19.2934 18.5206M19.2917 17.4495L19.0434 17.4786M19.2917 17.4495C19.2917 17.4495 19.2917 17.4494 19.2917 17.4494L19.0434 17.4786M19.2917 17.4495C19.2926 17.4564 19.2931 17.4598 19.2938 17.4648C19.2946 17.4697 19.2955 17.476 19.2972 17.4883C19.2992 17.5032 19.3018 17.5243 19.3026 17.5486M19.0434 17.4786C19.0445 17.4877 19.0458 17.4966 19.0471 17.5056C19.05 17.5254 19.0529 17.5449 19.0529 17.5645M19.3026 17.5486C19.3022 17.545 19.3019 17.5414 19.3015 17.5379L19.0529 17.5645M19.3026 17.5486C19.3179 17.6923 19.3308 17.8386 19.3386 17.9858L19.3393 17.9991L19.3386 18.0124C19.3306 18.1633 19.3172 18.3131 19.3015 18.4603L19.3012 18.4629L19.3012 18.4629C19.2999 18.4737 19.2985 18.4837 19.2974 18.4914L19.2946 18.5105C19.2938 18.5169 19.2935 18.5199 19.2934 18.5206M19.3026 17.5486C19.3028 17.5538 19.3029 17.5591 19.3029 17.5645H19.0529M19.0529 17.5645L19.2934 18.5206M19.2934 18.5206V18.5196C19.2934 18.5203 19.2934 18.5208 19.2934 18.5208C19.2934 18.5208 19.2934 18.5207 19.2934 18.5206ZM17.2813 16.9802C17.1942 16.9925 17.1075 17.0061 17.0208 17.0208C17.0218 17.0145 17.0229 17.0081 17.0239 17.0017C17.0298 16.9661 17.0358 16.9294 17.0431 16.8989C17.0516 16.8525 17.0604 16.806 17.0697 16.7594L17.2813 16.9802Z"
      stroke="#262524" stroke-width="0.5"/>
    <path
      d="M18.6656 19.2781C18.6282 19.2832 18.5909 19.2882 18.5537 19.2931L18.5488 19.2937L18.5488 19.2937L18.4629 19.3031L18.4622 19.3032C18.315 19.319 18.1652 19.3323 18.0142 19.3403L18.001 19.341L17.9877 19.3403C17.8367 19.3323 17.6869 19.319 17.5397 19.3032L17.539 19.3031L17.4531 19.2937L17.4513 19.2935C17.2928 19.2749 17.1365 19.2519 16.9809 19.2255L16.8059 19.1958L16.7762 19.0208C16.7498 18.8652 16.7268 18.7089 16.7083 18.5504C16.7082 18.5504 16.7082 18.5504 16.7082 18.5504L18.6656 19.2781ZM18.6656 19.2781C18.6285 19.4566 18.586 19.6355 18.5374 19.8106L18.537 19.8119C18.3583 20.4693 18.1044 21.1038 17.7802 21.703L17.78 21.7033C17.3632 22.4765 16.8356 23.1846 16.2139 23.8051L16.2137 23.8053C16.1173 23.9018 16.027 23.9935 15.9408 24.081C15.5561 24.4717 15.254 24.7785 14.8512 25.0537L14.8505 25.0542C14.4258 25.3464 13.8825 25.6084 13.0053 25.88C12.5331 26.0241 12.052 26.1438 11.5752 26.259C11.5068 26.2755 11.4384 26.292 11.3702 26.3084C10.9649 26.4059 10.5636 26.5024 10.1832 26.609C9.75582 26.7287 9.34281 26.8639 8.96696 27.0348C9.13796 26.6597 9.27334 26.2473 9.39312 25.8203C9.50139 25.4344 9.59927 25.0269 9.69815 24.6153C9.71317 24.5528 9.72822 24.4901 9.74333 24.4275C9.85842 23.9501 9.97775 23.4681 10.121 22.9948C10.3883 22.1183 10.6499 21.5772 10.946 21.1513L10.9468 21.1501C11.2258 20.7439 11.5353 20.4389 11.9342 20.0458C12.0172 19.964 12.1041 19.8784 12.1954 19.7872L12.1958 19.7868C12.816 19.1649 13.5238 18.637 14.2967 18.2199L14.297 18.2198C14.8961 17.8956 15.5307 17.6416 16.1881 17.463L16.1892 17.4627C16.3664 17.4136 16.5437 17.3709 16.7228 17.3338C16.7177 17.3728 16.7128 17.4119 16.7082 17.4511L16.7065 17.4656V17.4792C16.7065 17.48 16.7062 17.4829 16.7054 17.4893L16.7026 17.5085C16.7015 17.5161 16.7001 17.5261 16.6988 17.5369L16.6985 17.5395C16.6827 17.6867 16.6694 17.8365 16.6614 17.9874L16.6607 18.0007L16.6614 18.014C16.6692 18.1613 16.6821 18.3075 16.6974 18.4512L18.6656 19.2781ZM10.7407 21.0086L10.7407 21.0086L10.7407 21.0086Z"
      stroke="#262524" stroke-width="0.5"/>
    <path
      d="M21.1458 25.0497L21.147 25.0505C21.5729 25.3466 22.114 25.6083 22.9907 25.8755C23.4638 26.0188 23.9458 26.1381 24.4232 26.2532C24.4858 26.2683 24.5484 26.2834 24.611 26.2984C25.0226 26.3973 25.4301 26.4952 25.816 26.6034C26.2426 26.7231 26.6546 26.8583 27.0295 27.0291C26.8591 26.6543 26.7244 26.2425 26.6052 25.8163C26.4979 25.4324 26.4009 25.0273 26.3029 24.6182C26.2874 24.5537 26.272 24.4891 26.2564 24.4245C26.1418 23.9478 26.0229 23.4666 25.88 22.9945C25.6083 22.1174 25.3464 21.5741 25.0542 21.1495L25.0537 21.1488C24.7785 20.746 24.4717 20.4439 24.081 20.0592C23.9935 19.973 23.9018 19.8827 23.8053 19.7862L23.8051 19.7861C23.1846 19.1644 22.4765 18.6367 21.7033 18.22L21.7028 18.2197C21.1042 17.895 20.4702 17.6405 19.8133 17.4612L19.8123 17.4609L19.8123 17.4609C19.6369 17.4122 19.4577 17.3696 19.2789 17.3325C19.284 17.3713 19.2889 17.4103 19.2934 17.4493L21.1458 25.0497ZM21.1458 25.0497C20.7396 24.7708 20.4346 24.4613 20.0415 24.0623C19.9597 23.9793 19.8741 23.8925 19.7829 23.8012L19.7827 23.8009C19.1625 23.1815 18.636 22.4748 18.2199 21.7033L18.2198 21.703C17.8956 21.1038 17.6416 20.4693 17.463 19.8119L17.463 19.8119L17.4627 19.8108C17.4136 19.6335 17.3709 19.4563 17.3338 19.2771L21.1458 25.0497Z"
      stroke="#262524" stroke-width="0.5"/>
    <path
      d="M16.9454 17.5662C16.9464 17.5572 16.9478 17.5482 16.9491 17.5393C16.952 17.5195 16.9548 17.4999 16.9548 17.4803C16.9729 17.3266 16.9952 17.1746 17.021 17.0226C17.173 16.9968 17.325 16.9745 17.4787 16.9564L17.5646 16.947C17.7089 16.9315 17.8541 16.9186 17.9992 16.9109C18.1444 16.9186 18.2895 16.9315 18.4338 16.947L16.9454 17.5662ZM16.9454 17.5662C16.9299 17.7105 16.917 17.8557 16.9093 18.0008C16.917 18.146 16.9299 18.2911 16.9454 18.4354M16.9454 17.5662L16.7595 18.9302M16.7211 18.6673C16.7326 18.7555 16.7455 18.843 16.7595 18.9302M16.7211 18.6673C16.7956 18.6828 16.87 18.6973 16.9441 18.7109L16.957 18.7132L16.9569 18.7136C16.9641 18.7153 16.9718 18.7169 16.9804 18.7186C16.9711 18.653 16.9626 18.5873 16.9548 18.5213M16.7211 18.6673C16.716 18.6285 16.7111 18.5896 16.7065 18.5505M16.7211 18.6673C16.5423 18.6303 16.363 18.5876 16.1877 18.539L16.1867 18.5387C15.5298 18.3594 14.8958 18.1049 14.2972 17.7802L14.2966 17.7799C13.5234 17.3631 12.8154 16.8355 12.1948 16.2138L12.1947 16.2136C12.0982 16.1171 12.0065 16.0269 11.919 15.9407C11.5283 15.5559 11.2215 15.2539 10.9463 14.8511L10.9458 14.8504C10.6535 14.4257 10.3916 13.8823 10.1199 13.0051M16.7595 18.9302C16.5467 18.8881 16.3315 18.8383 16.1208 18.7799C15.4454 18.5955 14.7935 18.3338 14.178 18C13.3834 17.5716 12.6556 17.0294 12.0179 16.3904C11.925 16.2975 11.8356 16.2096 11.7494 16.1247C11.357 15.7385 11.03 15.4167 10.7399 14.9921C10.4289 14.5403 10.1575 13.9718 9.88097 13.0785M16.7595 18.9302L8.59125 8.7764M16.9548 18.5213C16.9538 18.5123 16.9524 18.5033 16.9511 18.4944C16.9482 18.4745 16.9454 18.455 16.9454 18.4354M16.9548 18.5213L16.7065 18.5505C16.7065 18.5505 16.7065 18.5505 16.7065 18.5505M16.9548 18.5213L16.7065 18.5505M16.9454 18.4354H16.6954C16.6954 18.4409 16.6955 18.4462 16.6957 18.4513M16.9454 18.4354L16.6968 18.4621C16.6964 18.4585 16.696 18.4549 16.6957 18.4513M16.6957 18.4513C16.6804 18.3076 16.6675 18.1614 16.6597 18.0141L16.6589 18.0008L16.6597 17.9875C16.6677 17.8366 16.681 17.6868 16.6968 17.5396L16.6971 17.537C16.6984 17.5262 16.6998 17.5162 16.7009 17.5085L16.7036 17.4894C16.7045 17.483 16.7048 17.4801 16.7048 17.4793V17.4657L16.7065 17.4512C16.7251 17.2927 16.7481 17.1364 16.7745 16.9808L16.8041 16.8057L16.9792 16.7761C17.1348 16.7497 17.2911 16.7267 17.4496 16.7081L17.4514 16.7079L17.5373 16.6985L17.538 16.6984C17.6852 16.6826 17.835 16.6693 17.9859 16.6613L17.9992 16.6605L18.0125 16.6613C18.1635 16.6693 18.3133 16.6826 18.4605 16.6984L18.4612 16.6985L18.5471 16.7079L18.5489 16.7081C18.5881 16.7127 18.6272 16.7176 18.6662 16.7227C18.6291 16.5436 18.5863 16.3663 18.5373 16.1891L18.537 16.188C18.3583 15.5306 18.1044 14.896 17.7802 14.2969L17.7801 14.2966C17.363 13.5237 16.8351 12.8159 16.2131 12.1957L16.2127 12.1953C16.1216 12.104 16.036 12.0171 15.9542 11.9341C15.5611 11.5351 15.2561 11.2256 14.8499 10.9467L14.8487 10.9459C14.4228 10.6498 13.8817 10.3881 13.005 10.1209C12.5318 9.97761 12.0499 9.85829 11.5725 9.74321C11.5098 9.7281 11.4472 9.71305 11.3847 9.69802C10.9731 9.59915 10.5656 9.50127 10.1797 9.393C9.7527 9.27322 9.34028 9.13784 8.96514 8.96684M16.6957 18.4513C16.6965 18.4756 16.6991 18.4967 16.7011 18.5116C16.7027 18.5239 16.7037 18.5303 16.7044 18.5351L16.7065 18.5505M10.1199 13.0051C9.9759 12.533 9.8562 12.0518 9.74099 11.5751C9.72446 11.5067 9.70801 11.4383 9.69159 11.37C9.59408 10.9648 9.49754 10.5635 9.39101 10.1831C9.27132 9.75569 9.1361 9.34269 8.96514 8.96684M10.1199 13.0051C10.1199 13.0049 10.1198 13.0047 10.1198 13.0046L9.88097 13.0785M10.1199 13.0051C10.12 13.0052 10.12 13.0054 10.1201 13.0055L9.88097 13.0785M8.96514 8.96684C8.83577 8.90787 8.71083 8.84466 8.59125 8.7764M8.96514 8.96684C8.90628 8.83744 8.84318 8.71245 8.77502 8.5928C9.49491 8.98693 10.4402 9.21402 11.4426 9.45483C11.9799 9.5839 12.5336 9.71692 13.0778 9.88171C13.971 10.154 14.5379 10.4254 14.9914 10.7406C15.419 11.0342 15.7432 11.3634 16.1371 11.7633C16.2178 11.8454 16.3015 11.9304 16.3897 12.0186C17.0289 12.656 17.5714 13.3835 18.0001 14.1779C18.3334 14.794 18.5945 15.4465 18.7783 16.1224L8.59125 8.7764M8.59125 8.7764C8.98289 9.49329 9.20882 10.4322 9.44834 11.4278C9.57885 11.9701 9.71339 12.5293 9.88097 13.0785"
      stroke="#262524" stroke-width="0.5"/>
    <defs>
      <linearGradient id="paint0_linear_290_98707" x1="7.95093" y1="18" x2="28.049" y2="18"
                      gradientUnits="userSpaceOnUse">
        <stop stop-color="#D1BE9B"/>
        <stop offset="0.338542" stop-color="#E7DDCB"/>
        <stop offset="0.661458" stop-color="#F7E6C5"/>
        <stop offset="1" stop-color="#A7987A"/>
      </linearGradient>
      <linearGradient id="paint1_linear_290_98707" x1="14.8942" y1="11.2164" x2="21.0956" y2="11.2164"
                      gradientUnits="userSpaceOnUse">
        <stop stop-color="#D1BE9B"/>
        <stop offset="0.338542" stop-color="#E7DDCB"/>
        <stop offset="0.661458" stop-color="#F7E6C5"/>
        <stop offset="1" stop-color="#A7987A"/>
      </linearGradient>
      <linearGradient id="paint2_linear_290_98707" x1="14.9033" y1="24.7847" x2="21.1008" y2="24.7847"
                      gradientUnits="userSpaceOnUse">
        <stop stop-color="#D1BE9B"/>
        <stop offset="0.338542" stop-color="#E7DDCB"/>
        <stop offset="0.661458" stop-color="#F7E6C5"/>
        <stop offset="1" stop-color="#A7987A"/>
      </linearGradient>
      <linearGradient id="paint3_linear_290_98707" x1="17.5696" y1="17.9962" x2="31.9999" y2="17.9962"
                      gradientUnits="userSpaceOnUse">
        <stop stop-color="#D1BE9B"/>
        <stop offset="0.338542" stop-color="#E7DDCB"/>
        <stop offset="0.661458" stop-color="#F7E6C5"/>
        <stop offset="1" stop-color="#A7987A"/>
      </linearGradient>
      <linearGradient id="paint4_linear_290_98707" x1="4" y1="18.0014" x2="18.4346" y2="18.0014"
                      gradientUnits="userSpaceOnUse">
        <stop stop-color="#D1BE9B"/>
        <stop offset="0.338542" stop-color="#E7DDCB"/>
        <stop offset="0.661458" stop-color="#F7E6C5"/>
        <stop offset="1" stop-color="#A7987A"/>
      </linearGradient>
      <linearGradient id="paint5_linear_290_98707" x1="17.0208" y1="13.5389" x2="27.8995" y2="13.5389"
                      gradientUnits="userSpaceOnUse">
        <stop stop-color="#D1BE9B"/>
        <stop offset="0.338542" stop-color="#E7DDCB"/>
        <stop offset="0.661458" stop-color="#F7E6C5"/>
        <stop offset="1" stop-color="#A7987A"/>
      </linearGradient>
      <linearGradient id="paint6_linear_290_98707" x1="8.09705" y1="22.4631" x2="18.9775" y2="22.4631"
                      gradientUnits="userSpaceOnUse">
        <stop stop-color="#D1BE9B"/>
        <stop offset="0.338542" stop-color="#E7DDCB"/>
        <stop offset="0.661458" stop-color="#F7E6C5"/>
        <stop offset="1" stop-color="#A7987A"/>
      </linearGradient>
      <linearGradient id="paint7_linear_290_98707" x1="17.0225" y1="22.4601" x2="27.8995" y2="22.4601"
                      gradientUnits="userSpaceOnUse">
        <stop stop-color="#D1BE9B"/>
        <stop offset="0.338542" stop-color="#E7DDCB"/>
        <stop offset="0.661458" stop-color="#F7E6C5"/>
        <stop offset="1" stop-color="#A7987A"/>
      </linearGradient>
      <linearGradient id="paint8_linear_290_98707" x1="8.09619" y1="13.538" x2="18.9775" y2="13.538"
                      gradientUnits="userSpaceOnUse">
        <stop stop-color="#D1BE9B"/>
        <stop offset="0.338542" stop-color="#E7DDCB"/>
        <stop offset="0.661458" stop-color="#F7E6C5"/>
        <stop offset="1" stop-color="#A7987A"/>
      </linearGradient>
    </defs>
  </g>
</svg>
