<svg xmlns="http://www.w3.org/2000/svg" viewBox="0 0 469.29 157.71">
  <defs>
    <style>.cls-1 { fill: #00f6ff; }</style>
  </defs>
  <g>
    <path class="cls-1"
          d="M23.2,134.05A75.78,75.78,0,0,1,0,78.49,75.69,75.69,0,0,1,23.2,23.2,75.54,75.54,0,0,1,78.85,0,75.64,75.64,0,0,1,134.51,23.2,75.78,75.78,0,0,1,157.7,78.86a75.8,75.8,0,0,1-23.19,55.65A75.78,75.78,0,0,1,78.85,157.7,75.7,75.7,0,0,1,23.2,134.05Zm83.48-27.83a37.63,37.63,0,0,0,11.55-27.83,37.61,37.61,0,0,0-11.55-27.83A37.66,37.66,0,0,0,78.85,39,37.58,37.58,0,0,0,51,51,37.6,37.6,0,0,0,39.48,78.86,37.61,37.61,0,0,0,51,106.68a38.21,38.21,0,0,0,55.19-.46Z"/>
    <path class="cls-1"
          d="M289.93,23.2a78.38,78.38,0,0,0-111.31,0,75.71,75.71,0,0,0-23.19,55.66h0V157h39.24V78.49a37.63,37.63,0,0,1,11.54-27.83,39,39,0,0,1,55.17-.5l.49.5a37.6,37.6,0,0,1,11.55,27.83h39.24A75.6,75.6,0,0,0,289.93,23.2Z"/>
    <path class="cls-1"
          d="M469.1,78.49a75.86,75.86,0,0,0-23.19-55.66A78.48,78.48,0,0,0,335,23.2,75.9,75.9,0,0,0,312.1,78.86,75.93,75.93,0,0,0,335,134.51a75.78,75.78,0,0,0,55.66,23.19V117.77a37.6,37.6,0,0,1-27.83-11.55,37.67,37.67,0,0,1-11.55-27.83,37.65,37.65,0,0,1,11.55-27.83A39,39,0,0,1,418,50.07l.5.49A37.75,37.75,0,0,1,430,78.39V157h39.29V78.49Z"/>
  </g>
</svg>
