<svg xmlns="http://www.w3.org/2000/svg" viewBox="0 0 214 225" fill="none">
  <g transform="translate(-26 -27)">
  <path
    d="M202.099 164.56C202.099 175.523 193.2 184.423 182.237 184.423C171.274 184.423 162.375 175.523 162.375 164.56C162.375 153.597 171.274 144.698 182.237 144.698C193.24 144.738 202.099 153.597 202.099 164.56Z"
    fill="#000000"/>
  <path
    d="M158.047 157.7V157.7C158.514 155.957 157.357 154.067 155.564 153.863C153.326 153.608 151.085 153.196 148.859 152.6L142.099 150.788C116.915 144.04 101.97 118.154 108.718 92.9696V92.9696C115.45 67.8446 141.372 52.8453 166.536 59.588L173.257 61.3888C198.382 68.1211 213.382 94.0434 206.639 119.207C205.356 123.996 203.362 128.413 200.813 132.382C197.693 137.242 198.841 144.514 202.309 149.132V149.132C206.893 155.236 218.025 160.982 222.723 154.965C228.968 146.965 233.746 137.613 236.531 127.217C247.682 85.6025 222.91 42.6968 181.295 31.5462L174.575 29.7453C132.96 18.5948 90.0544 43.3664 78.9038 84.981L72.2134 109.95C69.1603 121.344 57.4483 128.106 46.0538 125.053V125.053C37.8091 122.844 29.337 127.735 27.1278 135.98C24.9186 144.225 29.81 152.697 38.0547 154.906V154.906C49.4492 157.959 56.2111 169.671 53.158 181.066L39.5574 231.824C37.3482 240.068 42.2396 248.54 50.4844 250.75C58.7292 252.959 67.2013 248.067 69.4105 239.823L74.5199 220.754C82.2625 191.858 111.964 174.71 140.86 182.453V182.453V182.453C149.827 184.855 156.209 170.179 157.399 160.972C157.54 159.882 157.755 158.789 158.047 157.7Z"
    fill="#000000"/>
  </g>
</svg>
