<?xml version="1.0" encoding="UTF-8"?>
<svg viewBox="0 0 27 30" version="1.1" xmlns="http://www.w3.org/2000/svg" xmlns:xlink="http://www.w3.org/1999/xlink">
  <defs>
    <path
      d="M0,10.0312291 C1.78345804,8.7873092 3.3373961,7.99994886 4.66181417,7.66914809 C6.64844127,7.17294694 5.49046559,10.4180936 9.44858103,10.8155299 C13.4066965,11.2129661 17.2053782,8.0502809 19.7969922,8.33884059 C21.5247348,8.53121372 22.9765424,9.31045706 24.1524148,10.6765706 L11.9845723,20.761078 L0,10.0312291 Z"
      id="path-1"/>
  </defs>

  <g id="final" stroke="none" stroke-width="1" fill="none" fill-rule="evenodd">
    <g id="stake-stone" transform="translate(1.000000, 1.000000)">
      <g id="group-3">
        <g id="path" transform="translate(0.357721, 7.238922)">
          <line x1="11.4958842" y1="0" x2="10.0549047" y2="11.0281634" stroke="#ffffff" stroke-width="1.50509537"/>
          <mask id="mask-2" fill="white">
            <use xlink:href="#path-1"/>
          </mask>
          <use id="mask" fill="#ffffff" fill-rule="nonzero" xlink:href="#path-1"/>
          <line x1="10.0549047" y1="10.380539" x2="11.9845723" y2="20.761078" stroke="#06070A"
                stroke-width="1.50509537" mask="url(#mask-2)"/>
        </g>
        <polygon id="path-21" stroke="#ffffff" stroke-width="1.50509537"
                 points="12.3361781 0 5.54047519 5.43074927 2.19278713e-14 16.852436 12.3361781 28 24.6885883 17.7378562 18.166735 3.73489428"/>
        <polyline id="path-22" stroke="#ffffff" stroke-width="1.50509537"
                  points="5.54047519 5.43074927 11.7080994 7.23892198 18.166735 3.73489428"/>
      </g>
    </g>
  </g>
</svg>
