<svg xmlns="http://www.w3.org/2000/svg" viewBox="0 0 95 48" fill="none">
  <path fill-rule="evenodd" clip-rule="evenodd"
        d="M93.2828 2.14282H87.4628C87.3385 2.14282 87.2271 2.23282 87.2057 2.35711L83.3271 22.3414C83.2971 22.5043 83.4214 22.6543 83.5842 22.6543H89.4042C89.5285 22.6543 89.6399 22.5643 89.6614 22.44L93.5399 2.45568C93.5742 2.29282 93.4499 2.14282 93.2828 2.14282ZM88.9039 33.8574C90.693 32.0683 90.693 29.1675 88.9039 27.3784C87.1148 25.5892 84.214 25.5892 82.4248 27.3784C80.6357 29.1675 80.6357 32.0683 82.4248 33.8574C84.214 35.6466 87.1148 35.6466 88.9039 33.8574ZM21.8911 2.15568H28.8468C29.0568 2.15568 29.1811 2.39568 29.0525 2.56282C26.9311 5.40425 14.524 21.96 14.524 21.96C14.524 21.96 12.5268 32.7428 12.214 34.38C12.1882 34.5 12.0854 34.5857 11.9611 34.5857H5.85396C5.69538 34.5857 5.5711 34.44 5.6011 34.2814C5.98681 32.16 7.90253 21.75 7.90253 21.75L7.74396 21.3385C7.7311 21.3 7.71824 21.2614 7.70539 21.2271C6.39824 17.8585 3.73253 11.01 3.73253 11.01C3.73253 11.01 1.07538 4.15711 0.445385 2.51568C0.381099 2.34425 0.505385 2.16854 0.685385 2.16854H6.71538C6.88681 2.16854 7.04538 2.27139 7.10967 2.43425C8.7811 6.55711 10.474 10.7314 12.214 15.0128C13.9041 12.7172 15.5747 10.4474 17.2354 8.19085L17.2401 8.18442L17.2506 8.17022C18.6883 6.21671 20.1187 4.27313 21.5482 2.33139C21.6254 2.21996 21.754 2.15568 21.8911 2.15568ZM51.4066 10.2688H45.3809C45.2395 10.2688 45.1238 10.3674 45.098 10.5045L44.6052 13.3202C44.5881 13.286 44.5667 13.2517 44.5452 13.2174L44.5452 13.2174C44.3266 12.8574 43.4609 11.6016 41.7038 10.7145C41.6709 10.6988 41.6385 10.6826 41.6061 10.6664C41.5414 10.634 41.4766 10.6016 41.408 10.5731C40.8938 10.3588 40.3752 10.1874 39.8523 10.0502C37.598 9.4545 35.3052 9.54878 33.0252 10.2688C24.4152 12.9859 21.9252 22.7659 24.8566 29.1002C27.8566 35.5845 36.4323 37.5731 41.7338 32.2459L41.4123 34.2174C41.3823 34.3931 41.5195 34.5516 41.6952 34.5516H47.3266C47.468 34.5516 47.5838 34.4488 47.6095 34.3116C48.7166 27.8745 49.8208 21.4685 50.9268 15.0523L51.6938 10.6031C51.7195 10.4274 51.5866 10.2688 51.4066 10.2688ZM40.5423 27.7245C36.8223 30.9559 31.1609 28.7831 30.5652 23.9274C30.1152 20.2802 32.2452 16.6331 35.9052 15.7416C36.368 15.6259 36.8352 15.5745 37.2938 15.5745C40.0495 15.5831 42.5523 17.5631 43.0195 20.4088C43.4866 23.2588 42.7709 25.7874 40.5423 27.7245ZM74.4088 10.2773H81.0131C81.2059 10.2773 81.3302 10.483 81.2359 10.6587C79.8516 13.2644 71.5674 28.6544 67.2774 36.5187C65.9488 38.9487 64.2774 41.1259 62.0616 42.8444C59.4088 44.9059 56.3702 45.6816 53.0531 45.5187C52.9245 45.5102 52.8302 45.3944 52.8516 45.2659L52.8994 44.9818C53.0638 44.0031 53.2484 42.9045 53.4045 41.9873C53.449 41.7233 53.497 41.4611 53.5452 41.1983C53.5713 41.0559 53.5975 40.9133 53.6231 40.7702L53.8159 39.673C53.8373 39.553 53.9359 39.463 54.0602 39.4587C54.1802 39.4544 54.3259 39.4502 54.4631 39.4502C55.2816 39.4459 56.0273 39.2916 56.8116 39.0644C58.1145 38.683 59.0059 37.7916 59.7902 36.7587V36.763C59.8027 36.7452 59.8166 36.7259 59.8311 36.706C59.8515 36.6781 59.873 36.6491 59.8931 36.6216L59.8973 36.6173C59.9531 36.5444 60.4716 35.773 60.5659 35.5887C60.9002 35.0273 61.1745 34.5173 61.1745 34.5173L60.8016 32.9787C60.7973 32.9573 60.7931 32.9402 60.7888 32.923C59.0873 26.1387 55.9374 12.8359 55.4273 10.6202C55.3931 10.4616 55.5131 10.3073 55.6802 10.3073H61.7574C61.8731 10.3073 61.9759 10.3887 62.0016 10.5044C62.2091 11.4427 63.1182 15.5788 63.9841 19.5187C64.7635 23.0652 65.508 26.4527 65.6745 27.2059C65.8674 26.8544 69.2231 20.2716 70.7831 17.1859L74.1774 10.4187C74.2245 10.333 74.3102 10.2773 74.4088 10.2773Z"
        fill="#212121"/>
</svg>
