<svg fill="none" viewBox="0 0 69 69" xmlns="http://www.w3.org/2000/svg">
  <rect fill="#000" height="68.1254" rx="7" width="68.1254" x=".818359"/>
  <g stroke-width="2.56522">
    <g stroke="#03d498">
      <path clip-rule="evenodd" d="m21.4423 30.0002 13.4051 7.7603v15.5204l-13.4051 7.7602-13.40519-7.7602v-15.5204z"
            fill-rule="evenodd"/>
      <path clip-rule="evenodd" d="m48.2508 30.0002 13.4052 7.7603v15.5204l-13.4052 7.7602-13.4051-7.7602v-15.5204z"
            fill-rule="evenodd"/>
      <path d="m34.8447 53.0653v-15.5204"/>
      <path clip-rule="evenodd" d="m34.8563 6.7124 13.4052 7.7602v15.5204l-13.4052 7.7602-13.4051-7.7602v-15.5204z"
            fill-rule="evenodd"/>
      <path d="m48.2654 30.0002-13.4052 7.7603-13.4051-7.7603"/>
    </g>
    <path clip-rule="evenodd" d="m34.8563 22.2544 13.4052 7.7602v15.5204l-13.4052 7.7602-13.4051-7.7602v-15.5204z"
          fill-rule="evenodd" stroke="#fff" stroke-linecap="round"/>
  </g>
  <path
    d="m34.8845 41.0657c2.1297 0 3.8561-1.7265 3.8561-3.8562 0-2.1296-1.7264-3.8561-3.8561-3.8561s-3.8562 1.7265-3.8562 3.8561c0 2.1297 1.7265 3.8562 3.8562 3.8562z"
    fill="#03d498"/>
</svg>
