<svg xmlns="http://www.w3.org/2000/svg" viewBox="0 0 220 220" fill="none">
  <linearGradient id="Gradient2" x1="0" x2="0" y1="0" y2="1">
    <stop offset="0%" stop-color="#ffffff" />
    <stop offset="100%" stop-color="#14141A" />
  </linearGradient>
  <rect width="220" height="220" fill="url(#Gradient2)" rx="16" ry="16" />
  <g transform="translate(12.5 10)">
  <path
    d="M118.469 199.034L112.171 172.894H72.4258L67.1078 199.034H25.9629L40.2708 147.914L153.336 144.378L169.83 199.034H118.469Z"
    fill="white"/>
  <path
    d="M115.493 45.0673L153.524 139.556C178.442 141.711 194.707 145.261 194.707 149.276C194.707 155.847 151.121 161.174 97.3537 161.174C43.5863 161.174 0 155.847 0 149.276C0 145.261 16.2658 141.711 41.1831 139.556L97.3537 0L97.6655 0.774717L129.805 24.8793L146.571 10.8171L164.42 29.2061L146.571 24.8793L137.377 49.2177L115.493 45.0673Z"
    fill="#6B00FA"/>
  </g>
</svg>
