<?xml version="1.0" encoding="UTF-8"?>
<svg viewBox="0 0 40 40" version="1.1" xmlns="http://www.w3.org/2000/svg">
  <g id="for-T" stroke="none" stroke-width="1" fill="none" fill-rule="evenodd">
    <g id="6.14" fill="#FFFFFF">
      <path
        d="M31.6855469,35.640625 L7.95507812,35.640625 C5.62478125,35.640625 4,34.0158438 4,31.6855469 L4,7.95507812 C4,5.62478125 5.62478125,4 7.95507812,4 L31.6855469,4 C34.0158438,4 35.640625,5.62478125 35.640625,7.95507812 L35.640625,31.6855469 C35.640625,34.0158438 34.0158438,35.640625 31.6855469,35.640625 Z M5.31835938,9.2734375 L5.31835938,11.9101562 L10.5917969,11.9101562 L8.03038281,5.50697266 C6.39143359,5.98270703 5.31835938,7.38860547 5.31835938,9.2734375 Z M10.5917969,5.31835938 L13.2285508,11.9101562 L17.1829609,11.9101562 L14.546875,5.31835938 L10.5917969,5.31835938 Z M17.1829258,5.31835938 L19.8203125,11.9101562 L23.7753906,11.9101562 L21.1386719,5.31835938 L17.1829258,5.31835938 L17.1829258,5.31835938 Z M23.7753906,5.31835938 L26.4121094,11.9101562 L30.3671875,11.9101562 L27.7304688,5.31835938 L23.7753906,5.31835938 Z M34.3222656,9.2734375 C34.3222656,6.94314062 32.6974844,5.31835938 30.3671875,5.31835938 L33.0039414,11.9101562 L34.3222656,11.9101562 L34.3222656,9.2734375 Z M34.3223008,13.2285156 L5.31839453,13.2285156 L5.31839453,30.3671875 C5.31839453,32.6974844 6.94317578,34.3222656 9.27347266,34.3222656 L30.3672227,34.3222656 C32.6975195,34.3222656 34.3223008,32.6974844 34.3223008,30.3671875 L34.3223008,13.2285156 L34.3223008,13.2285156 Z M14.546875,17.1835938 L26.4121094,23.7753906 L14.546875,30.3671875 L14.546875,17.1835938 L14.546875,17.1835938 Z"
        id="shape"/>
    </g>
  </g>
</svg>
