<svg xmlns="http://www.w3.org/2000/svg" viewBox="0 0 138 40" fill="none">
  <path fill-rule="evenodd" clip-rule="evenodd"
        d="M40 20C40 31.0457 31.0457 40 20 40C8.9543 40 0 31.0457 0 20C0 13.4571 3.14185 7.64803 7.99916 3.99916L4 0H20C31.0457 0 40 8.9543 40 20ZM15.75 32.5C9.5368 32.5 4.5 27.4632 4.5 21.25C4.5 20.8487 4.52101 20.4524 4.56198 20.062C4.95239 20.021 5.34874 20 5.75 20C11.9632 20 17 25.0368 17 31.25C17 31.6513 16.979 32.0476 16.938 32.438C16.5476 32.479 16.1513 32.5 15.75 32.5ZM24.25 32.5C30.4632 32.5 35.5 27.4632 35.5 21.25C35.5 20.8487 35.479 20.4524 35.438 20.062C35.0476 20.021 34.6513 20 34.25 20C28.0368 20 23 25.0368 23 31.25C23 31.6513 23.021 32.0476 23.062 32.438C23.4524 32.479 23.8487 32.5 24.25 32.5Z"
        fill="black"/>
  <path
    d="M119.961 9.35916C119.914 9.29086 119.837 9.25 119.754 9.25H112.723C112.522 9.25 112.403 9.47488 112.517 9.64084L119.043 19.2121C119.264 19.5365 119.264 19.9632 119.043 20.2876L112.517 29.8589C112.403 30.0249 112.522 30.2498 112.723 30.2498H119.754C119.837 30.2498 119.914 30.2089 119.961 30.1406L126.854 20.0315C126.969 19.8616 126.969 19.6381 126.854 19.4682L119.961 9.35916Z"
    fill="black"/>
  <path fill-rule="evenodd" clip-rule="evenodd"
        d="M125.864 24.4752L128.893 20.0318C129.009 19.8619 129.009 19.6384 128.893 19.4684L125.864 15.0251L129.517 9.66705C129.695 9.40627 129.99 9.25024 130.306 9.25024H136.965C137.165 9.25024 137.284 9.47513 137.171 9.64108L130.471 19.4684C130.355 19.6384 130.355 19.8619 130.471 20.0318L137.171 29.8592C137.284 30.0251 137.165 30.25 136.965 30.25H130.306C129.99 30.25 129.695 30.094 129.517 29.8332L125.864 24.4752Z"
        fill="black"/>
  <path
    d="M96.8408 14.4H100.471V16.08C101.011 15.48 101.701 15.03 102.481 14.7C103.261 14.4 104.131 14.22 105.061 14.22C106.861 14.22 108.241 14.76 109.261 15.84C110.251 16.92 110.761 18.39 110.761 20.28V30H107.041V21.03C107.041 18.69 105.991 17.52 103.951 17.52C102.871 17.52 102.061 17.85 101.461 18.45C100.861 19.05 100.561 19.98 100.561 21.18V30H96.8408V14.4Z"
    fill="black"/>
  <path
    d="M84.3521 23.2199V23.2799C84.3521 25.7999 85.6121 27.0299 88.1921 27.0299C89.0321 27.0299 89.7521 26.8799 90.2921 26.5499C90.8321 26.2499 91.1621 25.7999 91.2521 25.1999L91.2821 25.1099H94.9121V25.2899C94.7921 26.7899 94.1321 28.0199 92.9021 28.9199C91.6721 29.8199 90.0521 30.2699 88.0421 30.2699C85.7321 30.2699 83.9321 29.6399 82.6121 28.3799C81.2921 27.1199 80.6621 25.2899 80.6621 22.8599V21.5099C80.6621 19.1399 81.2921 17.3099 82.5821 16.0499C83.8421 14.7899 85.6121 14.1299 87.8621 14.1299C90.0821 14.1299 91.8521 14.7599 93.1421 16.0199C94.4021 17.2799 95.0621 19.0799 95.0621 21.4199V23.2199H84.3521ZM84.3521 20.6699H91.3421V20.4599C91.3421 19.4399 91.0121 18.6599 90.3821 18.1199C89.7521 17.5799 88.9121 17.3099 87.8621 17.3099C85.6421 17.3099 84.4721 18.4499 84.3521 20.6699Z"
    fill="black"/>
  <path d="M75.0156 9.20996H78.7056V12.18H75.0156V9.20996ZM75.0156 14.4H78.7056V30H75.0156V14.4Z" fill="black"/>
  <path
    d="M67.9797 28.7699C67.1397 27.9299 66.7197 26.6699 66.7197 24.9599V9.29993H70.4397V24.7199C70.4397 25.4999 70.5897 26.0399 70.8897 26.3399C71.1897 26.6399 71.7597 26.7899 72.5697 26.7899H73.9797V29.9999H71.9097C70.1397 29.9999 68.8197 29.6099 67.9797 28.7699Z"
    fill="black"/>
  <path
    d="M60.49 25.9799H51.7L50.2 29.9999H46L54.49 9.29993H57.7L66.19 29.9999H61.99L60.49 25.9799ZM59.26 22.7099L56.08 14.2799L52.93 22.7099H59.26Z"
    fill="black"/>
</svg>
