<svg xmlns="http://www.w3.org/2000/svg" viewBox="0 0 84 84" fill="none">
  <g transform="translate(-5, -1)">
  <path fill-rule="evenodd" clip-rule="evenodd"
        d="M84.4519 38.2728C84.6275 39.754 84.7251 41.2644 84.7251 42.7992C84.7251 63.619 67.8269 80.5018 46.9774 80.5018C31.7963 80.5018 18.7129 71.5512 12.7175 58.6442L18.7568 55.6087C23.635 66.3134 34.4354 73.7535 46.9774 73.7535C64.0902 73.7535 77.9688 59.8965 77.9688 42.7992C77.9688 42.4825 77.9639 42.1658 77.9541 41.8491L84.4519 38.2728ZM46.9774 5.09668C62.8755 5.09668 76.4809 14.9145 82.0421 28.8155L75.5833 30.8716C70.91 19.6992 59.8608 11.8449 46.9774 11.8449C29.8645 11.8449 15.986 25.702 15.986 42.7992C15.986 43.0087 15.9908 43.2231 15.9957 43.4326L9.67353 48.5974C9.38084 46.7069 9.22961 44.7726 9.22961 42.7992C9.23449 21.9746 26.1327 5.09668 46.9774 5.09668Z"
        fill="#010E35"/>
  <path fill-rule="evenodd" clip-rule="evenodd"
        d="M4.927 57.874L41.8454 27.7139L40.3137 40.2554L61.8608 28.0598L60.7681 39.9679L89.0326 30.9784L50.6994 52.0661L53.563 40.0654L31.4158 53.0308L32.8793 43.8269L4.927 57.874Z"
        fill="#010E35"/>
  </g>
</svg>
